<svg xmlns="http://www.w3.org/2000/svg" xmlns:xlink="http://www.w3.org/1999/xlink" viewBox="0 0 5926.1 2940.16"><defs><style>.cls-1,.cls-10,.cls-11,.cls-16,.cls-19,.cls-20,.cls-22,.cls-23,.cls-24,.cls-25,.cls-26,.cls-27,.cls-4,.cls-5,.cls-6,.cls-7,.cls-8{fill:none;}.cls-2{fill:#a1d5b2;}.cls-3{fill:#0071bc;}.cls-16,.cls-19,.cls-20,.cls-4,.cls-5,.cls-6,.cls-7,.cls-8{stroke:#000;}.cls-10,.cls-11,.cls-16,.cls-19,.cls-20,.cls-22,.cls-23,.cls-24,.cls-25,.cls-26,.cls-27,.cls-4,.cls-5,.cls-6,.cls-7,.cls-8{stroke-miterlimit:10;}.cls-4,.cls-5,.cls-6,.cls-7,.cls-8{stroke-width:4px;}.cls-5{stroke-dasharray:19.9 19.9;}.cls-6{stroke-dasharray:19.82 19.82;}.cls-7{stroke-dasharray:20.43 20.43;}.cls-8{stroke-dasharray:19.88 19.88;}.cls-9{fill:#009245;}.cls-10,.cls-11,.cls-23,.cls-27{stroke:#f6f0c5;}.cls-10,.cls-11,.cls-19{stroke-width:25px;}.cls-11{stroke-dasharray:11.06 11.06;}.cls-12{fill:#c1272d;}.cls-13{fill:#fff;}.cls-14{font-size:72px;}.cls-14,.cls-17{fill:#1b1464;font-family:Ingra-Light, Ingra;}.cls-15{letter-spacing:-0.01em;}.cls-16{stroke-width:11px;}.cls-17{font-size:150px;}.cls-18{letter-spacing:-0.05em;}.cls-20{stroke-width:12px;}.cls-21{clip-path:url(#clip-path);}.cls-22,.cls-24,.cls-25,.cls-26{stroke:#fffce9;}.cls-22,.cls-25{stroke-width:10px;}.cls-22{stroke-dasharray:10;}.cls-23,.cls-27{stroke-width:50px;}.cls-23{stroke-dasharray:20;}.cls-24{stroke-width:20px;}.cls-26{stroke-width:5px;}.cls-28{fill:#29abe2;}.cls-29{fill:#f15a24;}.cls-30{fill:#fbb03b;}.cls-31{clip-path:url(#clip-path-2);}</style><clipPath id="clip-path"><rect class="cls-1" x="3423.38" y="437.58" width="2151.47" height="2852.83" transform="translate(6363.11 -2635.11) rotate(90)"/></clipPath><clipPath id="clip-path-2"><rect class="cls-1" x="1318.38" y="5498.58" width="2151.47" height="2852.83" transform="translate(9319.11 4530.89) rotate(90)"/></clipPath></defs><title>map_horiz</title><g id="Main_H" data-name="Main H"><g id="Background"><rect id="Ground" class="cls-2" x="12.5" y="12.5" width="3453" height="2553"/></g><g id="Water"><g id="Simplified"><path id="Rivers" class="cls-3" d="M2494.91,1216.28c-.36-.77-24.34-32-26-42.52-1.47,14.7,20.29,72.78,21.07,79.29,3.6,30.23,3.3,64.16-28.55,80.82-11.84,6.19-29.85,0-39.38,7.2-5.91,4.47-4,14.29-8.07,19.6-5.39,7.09-13.5,16.09-17.94,21.74-7.51,9.56-19.16,17.76-23.78,29.73-4.69,12.16-5.3,31.36,3.23,31.36,7,0,9.94,10.09,6.68,30.06-5.82,35.73-44.56,73.42-73.74,88.18-38.19,19.32-47.66,34.35-88.74,30.71-25.87-2.28-25.89-1.32-41.61,17.84-9.14,11.13-9.53,19.16-19.82,29.72-6.81,7-9.44-1.52-13.87,0-4,1.36-3.5,22.12-11.89,19.81-10-2.73-4.24-21.58-4.89-27.47-3.61-32.68-1.68-48.94-24.83-75.56-13.26-15.25-46.13-39.37-63.29-47.29-13-6-33.61,1.87-31.82,7.66,3.82,12.34,36.8,32.1,9.91,27.74-10.12-1.65-37.43-36.53-42.92-43.37-23-28.57-35.36-83.2-10.59-109.21,12.45-13.06,20.77-12.38,15.45-26.35-5.59-14.69-29.58-12.21-31.3-29.13-2.14-21.12,28.62-18.89,37.65-33.69,2.86-4.67,7.61-37.87,4-37.65,7.24-.45,22.83,20.76,20.25-6-1.58-16.31-20.89-16-24.21-25.68-1.74-5,13.16-11.89,11.89-19.81-2.15-13.47-16.55-1.93-19.81-15.86-6.14-26.19,24.17-27.05,31.7-41.61,8.78-17-9.5-9.41-7.93-17.83,4-21.22,22.39-25.37,21.8-49.54-.57-23.27-11-20.65-21.31-34.31-5.65-7.52,7.08-38.73,7.28-43.34-5.2,1.61-14.48,28.09-14,32,2.14,17.45,21.24,22.66,25.06,37.73,4.13,16.32-8.36,28.3-13.87,41.61-2.32,5.6-9,10-10.9,15.85-2.77,8.61,9.91,7.7,9.91,11.89,0,5.52-24.28,22-27.4,29.17-15.72,36.08,8.86,19,15.51,32.25,2.86,5.74-13,18.81-11.89,24.77,1.35,7.64,15.58,7.61,16.84,13.87,7.48,37.33-3-2-12.88,12.88-8.12,12.18,4.64,21.78-2,35.14-6.44,12.88-26.35,7.54-35.23,19.21-13.79,18.11,1.41,25.86,11.51,36.8,23,24.9,16.64,10.32,0,33.69-6.62,9.3-8.33,29.58-16.62,32.14-14.49,4.47-42-12-54.71-16.29-47.16-16.08-94.52-.48-129-47.39-12.56-17.07-16.31-34.57-29.5-49.7-21.26-24.39-41.33-35.55-53.72-66.78-10-25.12-25.53-41.24-36.63-64.53-10.81-22.69-12.33-50.15-23.57-73.33-25.52-52.63-72.14-85.29-128.78-90.89-29.88-3-50.25-3.51-76.7.78-30.07,4.88-54.58,1.48-82.85-.5-40.46-2.82-37.92-2.28-67.37-27.74-11.22-9.69-3.08-15.72-18.92-11.92C1232.13,974.51,1228,995,1223,996c1.65-.34-24.93-12.54-26.49-13.38-17.41-9.39-16.08-9.83-29-24.27-3.5-3.91-10.82-14.35-15.62-16.19-15.08-5.77-9.91,1.29-16.59,3-2.62.67,1.56,12.52-9.08,13.34-5.92.45-14.91-13.58-19.07-17.1-11.57-9.79-12.65-4.57-20.91-18.14-6.45-10.61-3.11-30.2-5.85-40.2-13.29-48.57.72-84.66,23.71-134.75,11.93-26,23.35-37.92,9.84-63.11-9.87-18.43-30.8-45.93-47.67-58-42.95-30.78-102.53-38.6-142.68-73.77-22.23-19.48-43.08-36.2-70.86-48.51-28.67-12.72-60.08-1.7-86.61-11.47-23-8.46-35.2-39.8-62.28-50.27-30.72-11.87-65.91-10.67-98.07-8.89-60.15,3.33-117.92,9.07-178,1.32-68-8.78-129.72-33.24-195.9-49.7-63.6-15.82-124.9-44.1-162.12-101.25C62.5,273.5,12.5,262.5,12.5,262.5v21.05c12-.05,39-.05,45,6.95,72.08,84.1,157.67,110,238.18,134.79,27.12,8.35,56.75,10.24,83.2,19.87,30.39,11.07,40.64,22.17,74,22.54,53.77.59,106.31,1.22,160.74-.43,51.63-1.56,84.19,26.08,131.48,43,55.4,19.78,113.3,30.25,155.2,74.24,40,42,73.78,58.76,128.6,76.52,24.09,7.81,54.2,17.22,61.3,45.72,7.71,30.89-15.07,41.43-29.72,61.43-12.52,17.09-26.88,49.62-20,71.71,6.36,20.52,24.25,29.86,31.84,51.5,16.58,47.26,21.63,67.38,68.54,78.31,3.53.82,10-9.26,16.73-7.33,2.17.61,6.56,19.7,8.47,22.08,18,22.3,32.57,27.18,60.37,29.68,41.61,3.74,76.23,25.32,123.37,17.59,39.37-6.46,78.36-2.64,116.91,2,58.61,7,93.56,25.56,123.61,78.51,21.69,38.24,43,74.48,66.61,111.71,11.56,18.23,18.06,40.62,31.71,57.47,14.06,17.36,28,27.57,39.63,47.55,35.72,61.2,68.67,75.7,136,91.13,60.67,13.9,35.23,69.64,69.16,109.46,15,17.55,43,28,42.47,43.14-.51,14.86,6.85,31.51,25.76,21.79,3.77-1.93-3-14.85,4.66-15.88,13.08-1.77,24.84,17.46,28.88,27.56,4.58,11.47,7.68,21.82,2.13,33.9-2.36,5.13-21.27,2-21.8,5.94-.23,1.72,28.56,17.13,30.56,19.07,12.67,12.27,17.71,30,19.73,47.12,2.68,22.84,1.19,62.36-22.17,70.75-21.13,7.59-40.22-23-40.22,10.61,0,10,10.06,32,12.1,34.75,5,6.7,13-7.2,19.23,8.09,8.24,20.23-8.63,44.07-3.17,67.22,3.3,14,12.91,26.88,13.67,41.6.77,15-7.25,31-8.42,46.26-1.43,18.6,13.55,68.61-4.83,81.35-14.94,10.36-30.47-9.95-52.14,13.08-31.43,33.38-1.12,35.69,7.92,67.37,2.26,7.92-1.35,29.17,0,39.63,1.62,12.52,5.58,20,5.6,33,.06,26.53-6.16,62.13,2.2,86.38,4.25,12.33,15.36,20.9,19.94,33.17,5.12,13.71,7.34,39.43,9.51,54.18,7.46,50.65-5.79,129.26-60.23,146.67-29.36,9.38-57.17,5.13-85.34-2.72-36.87-10.29-20.4,3.21-48.22,21.82h220c.16-33.44,10.94-32.34,29.35-51.8,12.73-13.45,15-3.89,10.58-18.33-.17-.56-15.7-4.08-18.13-7.15-5.68-7.17-5.36-19.51-6.06-28-2.31-27.83,3-72.22,22.55-93.94,29.66-32.93,56.76,5.58,86.55-11.07,11.14-6.22,26.06-42.6,7.92-51.31-15.28-7.33-7.63,13.78-13.87,13.87-13.69.19-21.64-10.13-33.68-13.87-31.53-9.79-40.56,1.71-45.94-39.31-3.51-26.77-25.13-60.83-15.15-85.62,5.21-12.93,25.8-36.12,32-42.92,11.07-12.13,40.9-28.51,39.9-51.19-1-23.79-39.69-46.5-44.81-65.13-3.57-13,6.08-23.39,5.44-37.86-.81-18.19-11.58-25.69-18.13-43.18-21.39-57.16,16-144.44,32.8-199.52,8-26.1,13-50.55,33.69-69.35,15.88-14.4,24.16-17.94,36.31-36,9.49-14.1,8.94-20.75,25.12-25.45,11.44-3.31,19.33,8.3,35.76.65,13.8-6.43,24.23-21.93,38.31-29.25,15.73-8.18,39.1-8.93,52.74-20.93,9.9-8.71,19.5-28.4,27.74-39.63,24.09-32.84,15.06-61.28,26.38-97.22,3.09-9.82,33.46-77.87,37-75.17,8.78,6.62-1.74,18.2,15.85,13.87,10.39-2.56,10.46-10.25,16.11-16.67,11.61-13.19,27.79-34.16,31.81-51.17C2503.42,1276,2502,1231.72,2494.91,1216.28ZM1914.55,1430c16.29-6.75,29.11,21.83,23.49,32.75C1923.66,1490.67,1904.25,1434.23,1914.55,1430Zm87,145.53c-7.85,10.77-17-18-21.56-20.7-9.52-5.62-21.54-7-28.94-12.59-5.71-4.36-39.9-59.25-24.56-56.76C1935,1486.85,2005.23,1570.38,2001.5,1575.5Zm109.22,104.14c-.2,0-20.64-51.71-44.22-89.14-15.71-24.94-39.55-39-35-43.62C2091.5,1485.5,2132.15,1674.58,2110.72,1679.64ZM2385.15,1426a196.17,196.17,0,0,0-4.65,19.49,36.79,36.79,0,0,1-4-10c-2.19-11,10.81-46,23.51-45.16C2409.88,1391,2388.82,1414.27,2385.15,1426Z"/></g></g><g id="Borders"><g id="MD_VA" data-name="MD/VA"><path class="cls-4" d="M12.5,283.55c2.71,0,6.19,0,10,.05"/><path class="cls-5" d="M42.36,285c6.89,1,12.72,2.69,15.14,5.51,72.08,84.1,157.67,110,238.18,134.79,27.12,8.35,56.75,10.24,83.2,19.87,30.39,11.07,40.64,22.17,74,22.54,53.77.59,106.31,1.22,160.74-.43,51.63-1.56,84.19,26.08,131.48,43,55.4,19.78,113.3,30.25,155.2,74.24,40,42,73.78,58.76,128.6,76.52,24.09,7.81,54.2,17.22,61.3,45.72,7.71,30.89-15.07,41.43-29.72,61.43-12.52,17.09-26.88,49.62-20,71.71,6.36,20.52,24.25,29.86,31.84,51.5,16.58,47.26,21.63,67.38,68.54,78.31,3.53.82,10-9.26,16.73-7.33,2.17.61,6.56,19.7,8.47,22.08,18,22.3,32.57,27.18,60.37,29.68,41.61,3.74,76.23,25.32,123.37,17.59,39.37-6.46,78.36-2.64,116.91,2,58.61,7,93.56,25.56,123.61,78.51,21.69,38.24,43,74.48,66.61,111.71,11.56,18.23,18.06,40.62,31.71,57.47,14.06,17.36,28,27.57,39.63,47.55,35.72,61.2,68.67,75.7,136,91.13,60.67,13.9,35.23,69.64,69.16,109.46,15,17.55,43,28,42.47,43.14-.51,14.86,6.85,31.51,25.76,21.79,3.77-1.93-3-14.85,4.66-15.88,13.08-1.77,24.84,17.46,28.88,27.56,4.58,11.47,7.68,21.82,2.13,33.9-2.36,5.13-21.27,2-21.8,5.94-.23,1.72,28.56,17.13,30.56,19.07,12.67,12.27,17.71,30,19.73,47.12,2.68,22.84,1.19,62.36-22.17,70.75-21.13,7.59-40.22-23-40.22,10.61,0,10,10.06,32,12.1,34.75,5,6.7,13-7.2,19.23,8.09,8.24,20.23-8.63,44.07-3.17,67.22,3.3,14,12.91,26.88,13.67,41.6.77,15-7.25,31-8.42,46.26-1.06,13.82,6.93,45,3.58,65.3-.14.84-.48,2.46-.48,2.46l-13.11,360.55s.15,7.51.08,11.34c-1,47-18.06,101.11-62.1,115.2-29.36,9.38-57.17,5.13-85.34-2.72-27.07-7.55-25.39-2.29-33.59,8.41"/><path class="cls-4" d="M1839.23,2559.25a67.39,67.39,0,0,1-7.91,6.12"/></g><g id="DC_MD" data-name="DC/MD"><line class="cls-4" x1="2040.23" y1="2059.23" x2="2047.32" y2="2052.18"/><line class="cls-6" x1="2061.35" y1="2038.19" x2="2615.77" y2="1485.63"/><polyline class="cls-4" points="2622.79 1478.64 2629.87 1471.58 2622.82 1464.49"/><line class="cls-7" x1="2608.42" y1="1450" x2="2039.76" y2="877.6"/><polyline class="cls-4" points="2032.56 870.35 2025.51 863.26 2018.46 870.35"/><line class="cls-8" x1="2004.44" y1="884.45" x2="1674.94" y2="1215.74"/><line class="cls-4" x1="1667.93" y1="1222.79" x2="1660.88" y2="1229.88"/></g></g><g id="Parks"><path id="Roosevelt_Island" data-name="Roosevelt Island" class="cls-9" d="M1914.55,1430c16.29-6.75,29.11,21.83,23.49,32.75C1923.66,1490.67,1904.25,1434.23,1914.55,1430Z"/><path id="LBJ_Island" data-name="LBJ Island" class="cls-9" d="M2001.5,1575.5c-7.85,10.77-17-18-21.56-20.7-9.52-5.62-21.54-7-28.94-12.59-5.71-4.36-39.9-59.25-24.56-56.76C1935,1486.85,2005.23,1570.38,2001.5,1575.5Z"/><path id="East_Potomac_Park" data-name="East Potomac Park" class="cls-9" d="M2110.72,1679.64c-.2,0-20.64-51.71-44.22-89.14-15.71-24.94-39.55-39-35-43.62C2091.5,1485.5,2132.15,1674.58,2110.72,1679.64Z"/><path id="National_Mall" data-name="National Mall" class="cls-9" d="M1959.8,1476a107.18,107.18,0,0,0,14.87,25.53c5.49,6.84,32.8,41.72,42.92,43.37,26.89,4.36-6.09-15.4-9.91-27.74-1.79-5.79,18.82-13.66,31.82-7.66a151.77,151.77,0,0,1,18.23,10.5h0c7.27,5,9.27,6.32,9.27,6.32V1502h134v-40.25l-6-4L2184,1478H2067v-64h-32v61.42l-75,.58"/><path id="Arlington_Cemetery" data-name="Arlington Cemetery" class="cls-9" d="M1896,1614c50.68-13.35,38.08-102.68,0-118C1827.33,1468.37,1831.77,1595.7,1896,1614Z"/></g><g id="Highways"><g id="Simplified-2" data-name="Simplified"><path id="_495" data-name="495" class="cls-10" d="M1388.5,1011.5c15.78-67.57,42.06-43.07,78.67-75.87,37.2-33.31,12.33-31.54,20.33-73.13,22.12-115.07,103.58-106.25,204-119,40.35-5.12,45.67-19.8,89,9,20.36,13.53,30.51,50.35,59.64,55.88,50.82,9.64,52.6-36.68,84.48-48.1,35.39-12.67,76.66,3.54,116.09-1.71,63.74-8.48,130.87-14,193.79-22.07,82.07-10.51,184.56-33.54,269-26,183.92,16.42,277.69,215.59,329.74,376,30.89,95.15,60.2,188.08,71.26,289,10.87,99.2,47.6,204.07-6.49,297.81-38.2,66.18-85.67,160.81-150.51,205.19-83.24,57-170.95,16.88-262.56,34.62-47.56,9.22-69.66,31-113.44,49.38-43.4,18.21-94.95,9.31-138,27-42.68,17.54-69.39,55-114.07,69.1-51.77,16.33-116.47,4.23-167.71-9-108.39-28.11-179-58.29-291.22-26.05-101.74,29.23-199.8,58.12-300.48,28.45-120.83-35.6-160.84-77.39-155.55-199.91,4.68-108.32-17-237.39,0-348.54,15.38-100.38,8.27-195.32,54.2-293.14,18.66-39.74,40.82-84.25,68.47-117.09C1350.65,1065.38,1380.21,1047,1388.5,1011.5Z"/><path id="_270" data-name="270" class="cls-10" d="M1519.5,791.5s38.6-72,44-103c6.76-38.86-19.93-75.51-32.43-110.18C1504,503,1484.27,452.68,1444.5,387.5c-37.47-61.42-42.16-133.24-81.67-194.1C1326,136.6,1253.5,12.5,1253.5,12.5"/><path id="_270_Ramp" data-name="270 Ramp" class="cls-10" d="M1743.5,735.5c-41-14-159.62-68.52-188-101"/><path id="_95" data-name="95" class="cls-10" d="M2449.5,709.64c0-60,53.81-121.2,84-175.14,36.09-64.47,94.22-91.71,130.56-160.6,30.51-57.84,48.56-122.3,87.61-172.68C2803,135,2856.5,12.5,2856.5,12.5"/><path id="_295" data-name="295" class="cls-10" d="M2156.5,2040.5c-79.29-55.57-.7-194.62,12-241,13-47.37,10-109,43-150,23.18-28.79,87.31-49.69,119-72,55.82-39.29,159.32-156,191-225,17.62-38.35,13-68.61,39.72-106.75,30.48-43.52,51.88-59.62,68.82-114.24,24.23-78.09,57.1-196.58,121.46-255,49.95-45.35,72.39-30.57,99.23-96.94,23-56.81,34-117.73,58.77-175.06,53.07-122.93,106.21-214.09,194-314,84.88-96.6,257-278,257-278"/><path id="_395_695" data-name="395/695" class="cls-10" d="M2273.14,1607.14s-99.84-75.75-147.64-72.64c-25.49,1.66-56.95,3.24-78.5,17-22.66,14.47-25.44,42-43.5,56-29.29,22.71-56.4,2.2-78.5,17.5-26.4,18.27-21.09,27.79-38.5,54.74-56.71,87.78-80.14,109.72-174.28,154-65.12,30.61-129.39,81.16-189.37,122-61.36,41.82-113.7,101.09-135.78,172.31-26,83.93-9.69,167.11-51.52,247.85-35.55,68.63-147,189.58-147,189.58"/><path id="_395_End" data-name="395 End" class="cls-10" d="M2145,1427.09c-3.52-15.86-6.45-26.59-6.45-26.59"/><g id="_395_Tunnel" data-name="395 Tunnel"><path class="cls-10" d="M2157,1513.57c0-1.64,0-3.31-.1-5"/><path class="cls-11" d="M2156.24,1497.53c-1.55-20.29-5.37-42.25-9.08-60.14"/><path class="cls-10" d="M2146,1432c-.36-1.68-.72-3.31-1.07-4.89"/></g><path id="_395_Ramp" data-name="395 Ramp" class="cls-10" d="M2154.5,1539.5c1.81-7.26,2.52-16.17,2.45-25.93"/><path id="_50" data-name="50" class="cls-10" d="M2352.5,1328.5c36.74,11.85,80.34-4.8,116-7,45.78-2.83,93.46,15.57,137.14.4,43.86-15.23,66.64-57.69,96.43-90.32,48.9-53.57,85.8-65.21,155.91-72.78,112.55-12.16,210.47,12,319.52,14.7,102.62,2.55,288-62,288-62"/><path id="GW_Pkwy" data-name="GW Pkwy" class="cls-10" d="M2012.5,1912.5c7.48-58.92-23.5-71.91-29-126-5.44-53.53,37-133,36-176-.54-23.28-25.44-49.79-51-79-31.29-35.75-113.44-97.3-144-107-63-20-100-50-137-115-9.18-16.13-26.45-40-40-52-11-9.75-35.69-21.46-42-30-36.87-49.92-12.32-108.45-71-148-47.18-31.81-157-33-157-33"/><path id="_66" data-name="66" class="cls-10" d="M1859.5,1442.5s-33-7-47-3.5c-39.32,9.83-38.08,24.61-68,40.5-58.68,31.16-108.18,80.77-177,65-81.22-18.62-136.93-123.91-217-123-72,.82-136.76,97.09-209.34,118.81-91.32,27.34-188.12,22.68-281.05,52.92-99.63,32.41-205.23,51.27-307.28,76.16C373.2,1713.19,12.5,1792.5,12.5,1792.5"/><path id="IAD_Acces" data-name="IAD Acces" class="cls-10" d="M1354.5,1421.5s-29.37-139.93-95-176c-70.87-39-136.88-.36-208.1-9.14-48.54-6-100.1-38.91-148.9-56.86-37-13.62-61.43-36.47-104-36-28.15.31-53.56,21.33-82.71,20.93-61.26-.84-118.5-43.87-180.48-51.15-67.59-7.93-125.45.18-192-23.21C219.71,1046.63,12.5,921.5,12.5,921.5"/><path id="_200" data-name="200" class="cls-10" d="M1311.5,110.5s157.62-60.07,161-61c52.39-14.4,166.24-3.88,217.81,9.74,129.4,34.16,263.15,117.15,361.63,206.27,57.73,52.25,44.34,64.39,125.56,53,80.68-11.33,128.23-5.13,203,29,70.46,32.16,102,52.45,181.63,48.52,81.94-4,206.37,44.48,206.37,44.48"/><path id="IAD_Rd" data-name="IAD Rd" class="cls-10" d="M171.5,1117.5c10.23-23.94,53-64,79-67"/></g></g><g id="Airports"><g id="Baltimore"><circle class="cls-12" cx="3354.54" cy="216.25" r="64.5"/><rect class="cls-12" x="3290" y="152" width="129" height="129" rx="12" ry="12"/><path class="cls-13" d="M3390.67,236.89a3,3,0,0,0,3.74-1.85,2.83,2.83,0,0,0,.16-.95v-6.32a8.89,8.89,0,0,0-3.61-7.12l-7.82-5.77v-2.95a5.08,5.08,0,0,0-5.08-5.09h-5.83l-7-5.08.58-13.47a42,42,0,0,0-.87-11.19,10.82,10.82,0,0,0-21.2,0,42.46,42.46,0,0,0-.86,11.19l.59,13.65-6.72,5H3331a5.07,5.07,0,0,0-5.08,5.08v2.91l-7.82,5.77a8.89,8.89,0,0,0-3.61,7.12v6.32a3,3,0,0,0,2.95,3,3.09,3.09,0,0,0,1-.15l26.74-9,.85,14L3334.62,251a9.42,9.42,0,0,0-3.52,7.36v2.29a3.37,3.37,0,0,0,.51,1.88,3.33,3.33,0,0,0,3.95,1.31l19-7.12,18.93,7.07a3.41,3.41,0,0,0,1.92.17,3.33,3.33,0,0,0,2.61-3.24v-2.36a9.48,9.48,0,0,0-3.52-7.36l-11.68-9.34.83-13.87Z"/><text class="cls-14" transform="translate(3293.34 346.15)"><tspan class="cls-15">B</tspan><tspan x="41.26" y="0">WI</tspan></text><line class="cls-16" x1="3361.03" y1="87.88" x2="3314.5" y2="138.5"/><polygon points="3341.89 85.09 3394 52 3365.42 106.71 3341.89 85.09"/></g><g id="National"><line class="cls-16" x1="2030.5" y1="1726.5" x2="1897.5" y2="1858.5"/><circle class="cls-12" cx="1897.54" cy="1858.25" r="64.5"/><rect class="cls-12" x="1833" y="1794" width="129" height="129" rx="12" ry="12"/><path class="cls-13" d="M1933.81,1879a3,3,0,0,0,3.76-1.86,3,3,0,0,0,.15-.95v-6.34a8.9,8.9,0,0,0-3.62-7.15l-7.84-5.79v-3a5.1,5.1,0,0,0-5.11-5.1h-5.85l-7-5.11.58-13.52A42.31,42.31,0,0,0,1908,1819a10.86,10.86,0,0,0-21.28,0,42.31,42.31,0,0,0-.87,11.23l.59,13.71-6.74,5h-5.79a5.1,5.1,0,0,0-5.1,5.11v2.92l-7.85,5.79a8.92,8.92,0,0,0-3.62,7.15v6.34a3,3,0,0,0,3,3,3.09,3.09,0,0,0,1-.15l26.84-9,.86,14-11.42,9.19a9.52,9.52,0,0,0-3.54,7.4v2.3a3.36,3.36,0,0,0,.53,1.87,3.31,3.31,0,0,0,4,1.32l19.08-7.15,19,7.1a3.36,3.36,0,0,0,1.93.17,3.32,3.32,0,0,0,2.62-3.24v-2.37a9.52,9.52,0,0,0-3.54-7.4l-11.72-9.37.84-13.92Z"/><text class="cls-14" transform="translate(1828.09 1988.15)">DCA</text></g><g id="Dulles"><circle class="cls-12" cx="108.54" cy="1209.25" r="64.5"/><rect class="cls-12" x="44" y="1145" width="129" height="129" rx="12" ry="12"/><path class="cls-13" d="M144.81,1230a3,3,0,0,0,3.76-1.86,3,3,0,0,0,.15-.95v-6.34a8.9,8.9,0,0,0-3.62-7.15l-7.84-5.79v-3a5.1,5.1,0,0,0-5.11-5.1H126.3l-7-5.11.58-13.52A42.31,42.31,0,0,0,119,1170a10.86,10.86,0,0,0-21.28,0,42.31,42.31,0,0,0-.87,11.23l.59,13.71-6.74,5H84.92a5.1,5.1,0,0,0-5.1,5.11v2.92L72,1213.68a8.92,8.92,0,0,0-3.62,7.15v6.34a3,3,0,0,0,3,3,3.09,3.09,0,0,0,1-.15l26.84-9,.86,14-11.42,9.19a9.52,9.52,0,0,0-3.54,7.4v2.3a3.36,3.36,0,0,0,.53,1.87,3.31,3.31,0,0,0,4,1.32l19.08-7.15,19,7.1a3.36,3.36,0,0,0,1.93.17,3.32,3.32,0,0,0,2.62-3.24v-2.37a9.52,9.52,0,0,0-3.54-7.4l-11.72-9.37.84-13.92Z"/><text class="cls-14" transform="translate(51.3 1339.15)">IAD</text></g></g><g id="Labels"><text class="cls-17" transform="translate(1771.82 1246.15)">DC</text><text class="cls-17" transform="translate(935.82 349.15)">MD</text><text class="cls-17" transform="translate(702.82 791.15)"><tspan class="cls-18">V</tspan><tspan x="83.1" y="0">A</tspan></text></g><g id="Edge"><rect id="Frame" class="cls-19" x="12.5" y="12.5" width="3453" height="2553"/></g><g id="Inset"><rect class="cls-20" x="2119.19" y="1380.58" width="283.81" height="213.42"/><line class="cls-20" x1="2403" y1="1381" x2="3076" y2="793"/><line class="cls-20" x1="2403" y1="1594" x2="3077" y2="2937"/></g></g><g id="Inset_H" data-name="Inset H"><g class="cls-21"><g id="Background-2" data-name="Background"><rect id="Ground-2" data-name="Ground" class="cls-2" x="3074" y="801.35" width="2849.04" height="2126.47"/></g><g id="Parks-2" data-name="Parks"><polygon id="National_Mall-2" data-name="National Mall" class="cls-9" points="3088 1947 3379 1947 3389 1969 3389 2034 3400 2038 3416 2051 3422 2066 3424 2072 3448 2064 3458 2036 3452 2024 3452 1947 3824 1947 3824 1696 3630 1696 3650 1618 3722 1618 3722 1484 3730 1476 3731 1469 3735 1462 3731 1446 3671 1426 3664 1426 3657 1430 3642 1443 3651 1464 3559 1552 3504 1552 3546 1701 3320 1699 3289 1707 3278 1716 3179 1683 3166 1696 3083 1701 3088 1947"/><polygon id="Stanton_Park" data-name="Stanton Park" class="cls-9" points="3948 1594 3949 1642 4039 1642 4039 1594 3948 1594"/><polygon id="Lincoln_Park" data-name="Lincoln Park" class="cls-9" points="4338 1794 4338 1855 4455 1855 4478 1866 4478 1794 4338 1794"/><polygon id="Grant_Park" data-name="Grant Park" class="cls-9" points="3712 2258 3841 2258 3884 2241 3885 2324 3721 2293 3712 2258"/><rect id="Marion_Park" data-name="Marion Park" class="cls-9" x="3948" y="2189" width="96" height="27"/><rect id="Seward_Square" data-name="Seward Square" class="cls-9" x="3949" y="2004" width="95" height="58"/><polygon id="Market_Park" data-name="Market Park" class="cls-9" points="4141 2158 4243 2158 4243 2114 4156 2114 4141 2106 4141 2158"/><polygon id="Potomac_Ave_Square" data-name="Potomac Ave Square" class="cls-9" points="4569 2365 4578 2368 4603 2366 4622 2360 4627 2344 4627 2334 4621 2332 4581 2332 4569 2337 4565 2350 4569 2365"/><polygon id="Folger_Park" data-name="Folger Park" class="cls-9" points="3824 2189 3884 2189 3884 2083 3825 2083 3824 2189"/><path id="Congressional_Cemetery" data-name="Congressional Cemetery" class="cls-9" d="M4801,2414V2240l58-30h135l2,86h110v50H4951l-112,91s-6.69-11.25-10-14-11-5.8-15-7C4810.85,2415.05,4801,2414,4801,2414Z"/><polygon id="Nats_Park" data-name="Nats Park" class="cls-9" points="3720 2664 3720 2811 3594 2878 3587 2863 3587 2662 3720 2664"/><path id="Anacostia_Riverfront" data-name="Anacostia Riverfront" class="cls-9" d="M3720,2928V2811s23-2,31.38-3.59c6.18-1.17,9.8-3.25,12.67-6.19,3.17-3.25,4.51-6.46,6.37-10.9,3.39-8.08,7.6-18.13,22.7-27.88,14.3-9.22,30.25-13.83,50.19-14.49l3.69-.13V2729l37-19h64v32c59.7.34,135.37,25.64,203.57,48,39.16,12.85,76.15,25,106.43,31.42,30.09,6.4,50,6.3,59.05-.29,23.28-16.88,46.18-35.63,66.27-52.56l-.32.41,12-37,11-15,32-22,61-49,70-50,66-37,48-22,56-26,56-18,23-10s17.42-10.45,21-16c1.81-2.8,2.91-9.67,3-13,.11-4.31-3-17-3-17l112-91h155v-50h7s13.9-17.48,18-24c5-7.95,15.5-23.94,18-33,1.67-6,2.48-18.92,1-25-1-3.92-7-10.1-8-14-7.06-26.58-2.27-82.59,0-110,.25-3,1.7-9,2-12,.7-7-.16-21.09,1-28a86.34,86.34,0,0,1,4-13c.83-2.08,3.65-5.79,4-8,1.53-9.75-3.8-29.38-6-39-2.86-12.49-15-49-15-49h-49l5-20,2-18,7-17-1-45H4982l-16-9-10-6v-89h24v-34h63v-67l-3-11,10-38,26-37,53-25,63-21,34-24,45-77,15-16V1249h-31V1079l-5-6-9-2h-47l-5-7-26-58,101-56-227-1V925l-148-67,29-57h995v406s-38.29-1-51,0c-12.37,1-37,5-49,8-16.41,4.13-49.9,12.64-64,22-10.62,7-26.63,27.6-34,38-8.4,11.87-23.81,37.07-28,51-4.4,14.65-4.56,45.71-5,61-.3,10.5,1,42,1,42l22,54,10,42v25l-6,33-9,11-26,35-24,37-9,36v108l-8,20,13,25,14,31-26,55-76,125-32,115-100,258-140,115-159,56-242,107-206,121-163,89-156,2"/></g><g id="Water-2" data-name="Water"><g id="Simplified-3" data-name="Simplified"><path class="cls-3" d="M5811.46,919.39c10.49-40.85,28.8-81.22,50.29-117.6l-53.45-.41s-5.73,44.45-26.71,45.94c-.1,0-23.07-24-25.37-25.24-14.53-8-31.64-7.66-47.71-6.58-32,2.15-72.11,17.39-95.48,41.25-17.33,17.7-34.63,50.35-48.48,71.38-16.7,25.35-8.34,47.25-19.78,72.7-11.61,25.83-40.17,34.49-60.22,52.78-26.51,24.17-30.94,45.39-36.94,79.36-10.93,61.88-28.73,108.16-23.44,172.81,5.17,63.22,8.55,126.55-16.56,186.6-22.46,53.72-78.41,95.9-88.36,153.42-12.31,71.15,50.69,111.61,55.67,174,4.31,54-32.88,118.1-51.86,167.39-11.23,29.14-24.73,53.12-42.44,79-6.82,10-20.52,19.81-22.39,32.66-1.2,8.22,10.57,31.16,10.61,31-4.48,18.22-37.09,41-48.31,58.63-18.68,29.35-33.86,61.35-49.78,92.23-31.54,61.17-53.85,131-121.06,159.85-127.51,54.77-267,76.64-390.82,142.55-58.83,31.33-114.64,68.77-166.75,110.21-55.29,44-110.77,96.7-167.74,138-55.13,40-289.7-96.76-407.11-73.76-11.17,2.19-23.85,10.93-34.65,12.36a60.9,60.9,0,0,1-27.11,3.53q-5.58-6.75-11.79-13c-15.82.53-30.16,3.69-43.83,12.51-19.93,12.86-15,24.8-26.89,37-9.36,9.59-22.42,8.49-32.29,15.92-15.13,11.39-12.87,16.22-23.11,27.69-18.62,20.84-41.85,39.61-43.62,69.55l693.77,4.12c168.82-117.46,325.47-234.94,519-310.21,47.7-18.55,95.12-37.42,142.15-57.59,45.44-19.5,106.14-34.67,142-69.87C5207,2454.1,5224.15,2404,5244,2359c22.14-50.3,50.13-92.37,86.65-133.26,71.39-79.95,162-149.58,211.95-246.79,46.9-91.36,61.27-210.2,82.33-310,9.78-46.33,26.25-94.71,29.67-142,2.07-28.57-8.34-45.89-10.91-72.56-2.7-28,6.79-53.43-1.14-81.66-14.74-52.42-30.85-79.57.09-131.91,10.45-17.66,23.28-43.24,41.62-50.9,14.25-6,53.4,11.48,64.34-6.64,13.36-22.14-15.21-22.87-20.45-33.46-13.44-27.16,4.27-43.69,22.26-69.56,14-20.09,22.59-37.09,31.19-59.65,2.51-6.58.38-17.38,3.08-25,3.71-10.52,11.16,4.26,14.72-11.07,2.93-12.58-4.65-25.55-1.29-39.34.45-1.88,15.78,2.5,18.19-2.8C5820.12,934,5809.31,927.77,5811.46,919.39ZM5617,909c-.38.38,39.45-38.63,33.18-37.18,16.88-3.91,22.87,22.82,11.17,38-2.63,3.4-48.21,32.52-51.86,34.18C5576.11,959.13,5615,911,5617,909Zm-7.3,61.85c10.68-17,29.79-25.48,36-1,4.48,17.53-24.85,43.66-35.5,53.29-6,5.41-55.77,39.26-36.11-.15,5.52-11.06,23.52-9.61,30.18-20.74C5610.22,992.33,5604.15,979.72,5609.71,970.87Zm-41.47-17.46c7.66-4.56,28,34.84,9.43,44.79a18.1,18.1,0,0,1-13,3.54C5560,998.15,5564.41,955.69,5568.24,953.41Zm-63.07,160.79c10.23-14.72,5.56-39.36,18.07-47.62,20.66-13.64,6.89,41,6.16,42.74-4.94,12.07-32,65.62-50.75,63.34C5437.77,1167.67,5502.09,1118.65,5505.17,1114.2Zm-91.39,545.55c.16-13.54-2.38-120.63,25.65-75.37,6.87,11.09-2.22,46.85-.68,61.59,2.39,22.92,7.43,45.62,9.26,68.92,1.35,17.17,7.62,37.51-3.35,52.74-6.95,9.66-34.09,25.81-46.16,16.8C5389.94,1778.05,5413.58,1676.94,5413.78,1659.75ZM5753.14,944c-18.92,43.86-37.06,89.17-59.33,131.42-48.09,91.28-132.25,152.68-116.08,263,15.07,102.91-8.93,193.91-28.72,294.55-9.59,48.79-21.33,97.29-35.54,145-12.72,42.67-13.94,87-35.1,125.79-25.37,46.47-55.21,92.72-88.12,134.1-21.67,27.25-57.2,81.61-95.48,83.7-37.12,2,24.16-44.72,24.51-45.08,18.25-18.58,30-41.92,42-65,22.7-43.59,39.26-92.18,70.54-130.87,33.15-41,61.23-83.37,68.56-138.3,7.37-55.17-8.41-96.4-15.47-146.73-13.15-93.83-24-192.52-27.79-288-1.91-48.19,12.52-97.59,60.17-119.3,24.19-11,40.31-7.47,58-29.81,14.91-18.8,19.63-45.54,26-67.75,7-24.55,11.15-48.14,27.46-68.32,13.61-16.85,37.27-24.78,50.28-41.92,23.23-30.6,16-86.15,53.14-107.38C5791.27,839.39,5764.84,916.88,5753.14,944Z"/></g></g><g id="Roads"><g id="Tunnels"><path class="cls-22" d="M3329.79,1311.75c3.08,22.27,17.68,65.93,17.68,88.41"/><path id="_395_tunnel-2" data-name="395 tunnel" class="cls-23" d="M3328.63,1105.32q3.32,10.35,6.28,20.69c46.52,161.7,33.19,321.11,33.19,503.68,0,124.75-16.49,250.71,27.94,368.9,4.53,12.06,10.51,26.75,16.52,42.86,3.79,10.19,7.6,21,11.06,32"/></g><g id="Major"><path class="cls-24" d="M3087.56,1946.51H5143.89a73.92,73.92,0,0,0,10.61-1.77,191.17,191.17,0,0,0,20.63-7.66c9.1-4.27,26.48-14.74,34.18-21.22,8.14-6.85,20.81-24.24,28.29-31.82,9.81-10,29.42-30.29,41.26-37.72,12.09-7.6,53-21.22,53-21.22h578.77"/><line class="cls-24" x1="3319.77" y1="1731.98" x2="3087.56" y2="1649.46"/><polyline class="cls-24" points="4569.28 2362.09 4392.43 2455.73 4341.75 2455.73"/><path class="cls-24" d="M3087.56,1157.93,3631,1426.68s4.27,2.8,5.3,4.13c4.68,6,7.86,21.61,12.38,27.7,5.11,6.87,18.24,18.63,25.93,22.39,6.75,3.3,22,5.43,29.47,5.9,8,.49,23.87-2.94,31.83-2.36,2.71.2,10.61,2.36,10.61,2.36L3948,1594.06v48.33h93.13l297,152.06v60.12h116.7l496.25,261.68v43.61l-329.44,176.86"/><polyline class="cls-24" points="3085.2 2561.82 4339.39 2568.89 4339.39 1248.69"/><path class="cls-24" d="M3585,801.94v724.93l-180.35,173.28H3332s-9.17-.23-12.22,0c-5.94.44-18,1.54-23.58,3.54s-21,12.45-21,12.45"/><path class="cls-24" d="M3087.56,1699h60.7s8.25.59,15.33-1.77c6.14-2,17.12-14.63,17.12-14.63"/><line class="cls-24" x1="3086.38" y1="1078.95" x2="3693.43" y2="800.76"/><line class="cls-24" x1="4657.65" y1="1248.69" x2="3837.24" y2="800.76"/><path class="cls-24" d="M3585,1248.69H4682.41l582.94,134.79s10.09,2.55,13.51,3.12c3.05.52,12.31,1.3,12.31,1.3l377.89,39.78s9.71.88,12.93,1.36c2.49.37,9.88,1.88,9.88,1.88l218.8,41.73"/><polyline class="cls-24" points="3405.23 1700.74 3824.28 1698.97 3948.04 1642.39"/><polyline class="cls-24" points="3948.04 1594.06 4038.81 1594.06 4038.81 1642.39"/><polyline class="cls-24" points="4918.16 800.76 4691.05 1250.69 4038.81 1594.06"/><path class="cls-24" d="M3847.42,1946.51,4762.1,2435.2s5.74,2.88,7.53,4c18.83,12,53.5,40.39,71.91,53,44.67,30.69,135.92,89.34,182.7,116.7,1.86,1.08,7.55,4.13,7.55,4.13l573.58,314.13"/><path class="cls-24" d="M3620.35,2928.41s-28.75-44.42-33-61.29c-.49-1.92,0-7.92,0-7.92V2201.58s.69-7.52,0-9.89c-7.52-25.82-40.42-70.2-57.76-90.76-24.62-29.19-87.73-74.08-113.16-102.55-10.64-11.92-37.31-51.87-37.31-51.87"/><line class="cls-24" x1="3319.77" y1="1946.51" x2="3319.77" y2="1698.97"/><line class="cls-24" x1="3824.28" y1="1698.97" x2="3824.28" y2="1946.51"/><polyline class="cls-24" points="3509.72 2082.93 3893.82 2083.25 4338.21 1854.57"/><line class="cls-24" x1="3797.41" y1="2565.84" x2="3663.1" y2="2083.05"/><polyline class="cls-24" points="4478.48 1864.59 4478.48 1794.45 4338.21 1794.45"/><line class="cls-24" x1="4760.2" y1="1629.43" x2="4454.71" y2="1794.45"/><path class="cls-24" d="M4038.81,1618.23h612.47a59.4,59.4,0,0,1,6.37,0c6.06.82,17.65,5,23.58,6.48,5.27,1.31,15.81,4.12,21.22,4.72,1.13.12,4.55,0,4.55,0h328s3.42-.1,4.56,0c14.11,1.2,42,7.22,55.4,11.78,14.85,5.06,43.73,18.12,56.58,27.11,15.54,10.88,41.63,38.87,54.22,53,9.63,10.84,25.71,35.16,35.37,46,8.19,9.17,25.11,27.39,35.36,34.18,12.54,8.32,55.4,23.58,55.4,23.58"/><line class="cls-24" x1="4951.16" y1="2116.25" x2="4951.16" y2="1629.43"/><path class="cls-24" d="M5278.86,1386.6s-25.4,58.34-37.72,75.44c-7.07,9.81-24.18,27.41-34.19,34.19-11.15,7.55-37,16.28-49.51,21.21-17.77,7-56,15.39-71.9,25.94-9,6-24.44,22.22-29.47,31.82-6.57,12.56-16.5,54.23-16.5,54.23"/><path class="cls-24" d="M4338.21,2495.31s99.74,29.16,133.79,35.27c29.73,5.34,90.07,13.29,120.23,11.79s88.79-16,117.88-23.58c23.36-6.06,71.07-17.35,91.94-29.46,4.64-2.7,15.83-14.51,15.83-14.51"/><path class="cls-24" d="M3509.55,2083.25s-19.16,7.83-24.76,11.78c-8.51,6-29.46,29.47-29.46,29.47"/><path class="cls-25" d="M4815,810.78s26,15.32,33,22.4c6,6,14.81,20.82,18.86,28.29,2.87,5.29,9.48,22.11,9.48,22.11"/><path class="cls-24" d="M5911.26,1978.93l-261.55,463.53s-9.8,18.14-14.28,23.29c-5.35,6.15-25.19,20.7-25.19,20.7L4927,2929"/><path class="cls-24" d="M5159.21,2617.81s-9.26,20-10.61,27.11c-.71,3.77-.5,11.53,0,15.32.67,5.07,5.31,19.74,5.31,19.74"/><path class="cls-24" d="M4998.9,2646.1s7.07-15.63,7.07-21.22c0-2.79-2.85-7.9-3.53-10.61-1.27-5-3.54-20.5-3.54-20.5"/><path class="cls-24" d="M5660.18,1900s-3.4-21.51-5.89-28.29c-2.55-6.93-9-20.64-14.15-25.93-7-7.2-34.77-20.18-34.77-20.18"/><line class="cls-24" x1="4478.48" y1="1854.57" x2="4454.19" y2="1854.57"/></g><g id="Minor"><line class="cls-25" x1="3824.28" y1="1829.52" x2="4338.21" y2="1829.52"/><line class="cls-25" x1="4951.75" y1="1825.69" x2="4478.48" y2="1825.1"/><path class="cls-25" d="M5055,1632.72s19.3,27.32,24,37.37c5.79,12.32,14.41,38.42,16.5,51.87,2.44,15.72,0,63.65,0,63.65V1841H4987.11s-10.6-1.18-18.28-7c-3.76-2.88-17.67-6.81-17.67-6.81"/><path class="cls-25" d="M5163.35,1941s-20.39-7.75-26.53-11.58c-6.57-4.1-18.28-14.41-23.58-20-5.05-5.37-13-16.59-15.32-23.58-3.36-10.06-2.36-42.43-2.36-42.43"/><path class="cls-25" d="M5075.93,1946.51s9.67-12.25,11.38-17.09c2.16-6.14,1-19.56,2.36-25.93.95-4.56,7.07-20,7.07-20"/><path class="cls-25" d="M5095.56,1751.09s10.13-16.89,14.14-22.06c3.71-4.77,11.57-14.19,16.51-17.68,4.2-3,13.82-7.2,18.86-8.25,4.61-1,14.15-.2,18.86,0,6.34.26,25.29,2.08,25.29,2.08"/><path class="cls-25" d="M5255.87,1786.79s6.18,20.16,7.07,27.11c.71,5.55.38,16.81,0,22.4-.47,7-3.76,28-3.76,28"/><path class="cls-25" d="M5085.75,1342s1.73,46.37.38,61.75c-1.29,14.62-7.55,43.4-10.61,57.75-4.68,22-17.58,65.09-21.22,87.23-1.84,11.24-4,45.38-4,45.38"/><line class="cls-25" x1="4416.87" y1="1794.45" x2="4679.46" y2="1386.01"/><line class="cls-25" x1="4416.87" y1="1854.57" x2="4694.99" y2="2295.52"/><line class="cls-25" x1="4679.46" y1="2391.49" x2="4679.46" y2="1248.1"/><line class="cls-25" x1="4599.3" y1="1248.1" x2="4596.95" y2="2346.7"/><line class="cls-25" x1="3948.63" y1="861.47" x2="3948.63" y2="2565.94"/><path class="cls-25" d="M4039.4,911l4.71,1455.76a15.91,15.91,0,0,1-1.18,5.89,74.77,74.77,0,0,1-9.43,14.14c-2.87,3.36-10.63,7.92-14.14,10.61-4.16,3.2-12.86,9.19-16.5,13-1.75,1.81-6.06,5-8.25,8.25a8.94,8.94,0,0,0-1.18,4.72v142.62"/><line class="cls-25" x1="4190.28" y1="2129.81" x2="4190.28" y2="2565.94"/><path class="cls-25" d="M4477.89,1157.34l1.18,1253H4139.59s-100.18-36.39-133.2-49.51c-14.57-5.79-42.87-19.52-57.76-24.46-15.55-5.16-63.65-15.62-63.65-15.62"/><line class="cls-25" x1="3948.63" y1="2402.66" x2="3088.15" y2="2402.66"/><polyline class="cls-25" points="4671.21 1969.5 4256.29 2114.48 4156.09 2114.48"/><line class="cls-25" x1="3823.69" y1="1947.1" x2="3824.86" y2="2082.66"/><line class="cls-25" x1="3720.46" y1="2402.66" x2="3720.46" y2="2663.78"/><path class="cls-25" d="M3585.58,1249.28h-224s-14.33,2-18.86,3.53c-7.23,2.5-27.12,14.15-27.12,14.15v433.78"/><polyline class="cls-25" points="4628.77 1700.74 3824.86 1699.56 3824.86 1248.1"/><path class="cls-25" d="M4705.39,1223.35l16.77,5.33s6.77,2,9.16,1.74c3-.27,10.79-4.5,10.79-4.5l524.37-273.69"/><path class="cls-25" d="M5094.38,1810.36H4985.94s-10.61,1.18-18.29,7.05c-3.76,2.87-17.67,6.8-17.67,6.8"/><line class="cls-25" x1="4190.28" y1="2462.82" x2="4012.24" y2="2402.66"/><path class="cls-25" d="M3463.9,2033.57s-16.24,26.8-16.24,34.94"/><path class="cls-25" d="M3424.09,2075.58c0-6.92-18.86-42.43-34.77-42"/><line class="cls-25" x1="3429.98" y1="2090.91" x2="3389.32" y2="2090.32"/><line class="cls-25" x1="3118.79" y1="1353.37" x2="3315.64" y2="1353.37"/><path class="cls-25" d="M3088.15,1267H3301.5s13.12,2.54,16.7,5a29,29,0,0,1,9.23,11.46c2.34,6.08,1.47,21.84,2.36,28.29"/><path class="cls-25" d="M3220.17,2808.77V2567.12s-6.34-13.88-7.08-18.86c-3.92-26.58,7.08-107.26,7.08-107.26V2187.57"/><polyline class="cls-25" points="3219.58 1698.97 3219.58 1946.51 3219.58 2185.8"/><line class="cls-25" x1="4889.44" y1="857.66" x2="4838.61" y2="825.79"/><polyline class="cls-25" points="4864.52 1284.64 4876.31 1249.28 4876.35 891.49"/><circle class="cls-25" cx="5636.02" cy="2469.88" r="30.65"/><line class="cls-25" x1="5660.28" y1="2488.59" x2="5911.26" y2="2617.81"/><line class="cls-25" x1="5635.43" y1="2499.93" x2="5676.68" y2="2926.64"/><path class="cls-25" d="M5279.44,2700.32s-15.93.52-21.21,0c-4.49-.44-13.2-3.09-17.68-3.53a122.42,122.42,0,0,0-18.86,0c-4.2.44-13.36,3.08-16.51,5.89-2.77,2.49-3.76,8.18-4.71,11.79a100.63,100.63,0,0,0-2.36,11.78c-.26,2.64.13,8,0,10.61a89.17,89.17,0,0,1-1.18,11.79,100.43,100.43,0,0,1-3.53,9.43"/><path class="cls-25" d="M4625.19,2333.3c3.11,3.21,1.6,13.72,0,17.9-1.44,3.75-7.33,9.83-10.74,11.93-2.9,1.79-9.76,3.13-13.13,3.58-7.39,1-23.2,3.42-29.84,0-2.28-1.17-5.18-5.91-6-8.35a22.29,22.29,0,0,1,0-9.55c1.24-4.38,5.66-13.13,9.54-15.51,3.06-1.88,10.74-1,14.32-1.19,6.56-.28,19.71-.41,26.26,0C4618,2332.26,4623.51,2331.58,4625.19,2333.3Z"/></g><g id="Local"><polyline class="cls-26" points="4394.79 1794.45 4394.79 1104.88 4566.89 800.76"/><polyline class="cls-26" points="5043.1 1629.43 5043.1 1702.51 4629.36 1701.33"/><polyline class="cls-26" points="4999.49 1701.33 4999.49 1459.69 5013.64 1403.11 5086.72 1419.61"/><polyline class="cls-26" points="5212.85 1374.82 5189.27 1460.87 5189.27 1475.01 4742.52 1475.01"/><line class="cls-26" x1="5204.59" y1="1491.51" x2="5189.27" y2="1475.01"/><line class="cls-26" x1="5171.59" y1="1360.67" x2="5137.4" y2="1524.52"/><line class="cls-26" x1="5132.69" y1="1352.42" x2="5094.97" y2="1538.66"/><line class="cls-26" x1="5069.04" y1="1551.63" x2="3087.56" y2="1551.63"/><polyline class="cls-26" points="4955.88 1624.71 4955.88 1475.01 4991.24 1320.59"/><polyline class="cls-26" points="5013.64 1403.11 4680.05 1320.59 3824.28 1321.77"/><line class="cls-26" x1="4878.08" y1="1624.71" x2="4878.08" y2="1475.01"/><polyline class="cls-26" points="4939.38 1307.63 4905.19 1456.15 4905.19 1472.65"/><polyline class="cls-26" points="4863.94 1291.12 4829.75 1442.01 4805.64 1475.01 4801.46 2346.11 4736.63 2346.11 4695.37 2290.71"/><line class="cls-26" x1="4800.28" y1="2296.6" x2="3884.39" y2="2296.6"/><line class="cls-26" x1="4875.72" y1="2199.94" x2="4878.08" y2="1825.1"/><line class="cls-26" x1="4949.98" y1="1760.27" x2="4516.2" y2="1760.27"/><polyline class="cls-26" points="4767.28 1268.73 4742.52 1397.21 4736.63 2346.11 4779.65 2421.55"/><polyline class="cls-26" points="4678.87 1443.18 4829.75 1443.18 4905.19 1456.15"/><line class="cls-26" x1="4678.87" y1="1475.01" x2="3824.28" y2="1475.01"/><polyline class="cls-26" points="4680.05 1407.82 3775.95 1405.46 3768.87 1411.36 3765.34 1431.4 3757.09 1450.26 3738.23 1459.69 3731.15 1469.12 3727.62 1484.44"/><polyline class="cls-26" points="3735.22 1463.69 3733.51 1453.79 3731.15 1445.54 3669.86 1425.5 3660.43 1427.86 3643.93 1438.47"/><polyline class="cls-26" points="3630.96 1425.5 3665.93 1320.59 3689.9 1248.69 3721.72 1163.82 3721.72 800.76"/><line class="cls-26" x1="3666.32" y1="1320.59" x2="3441.18" y2="1320.59"/><line class="cls-26" x1="3292.66" y1="801.94" x2="3546.09" y2="1700.15"/><polyline class="cls-26" points="3720.89 2031 3720.55 2257.7 3840.78 2257.7 3948.04 2216.45 4334.68 2215.27 4355.89 2208.19 4860 2210.55"/><line class="cls-26" x1="3721.72" y1="1484.44" x2="3721.02" y2="1947"/><path class="cls-26" d="M4394.79,1854.57l3.54,601.16h348.91s7.56-2.85,9.43-4.71c2.33-2.33,4.07-9.05,5.89-11.79,3-4.53,9.73-13.34,14.15-16.5,2.58-1.85,8.78-3.71,11.78-4.72,3.19-1.07,13-3.54,13-3.54v-68.36"/><line class="cls-26" x1="4478.48" y1="2409.76" x2="4479.07" y2="2455.73"/><line class="cls-26" x1="4596.36" y1="2346.11" x2="4596.36" y2="2455.73"/><line class="cls-26" x1="4678.87" y1="2390.9" x2="4679.46" y2="2455.73"/><polyline class="cls-26" points="4516.2 2390.9 4535.06 2422.73 4678.87 2422.73"/><line class="cls-26" x1="4949.98" y1="1884.04" x2="4516.2" y2="1884.04"/><line class="cls-26" x1="4278.09" y1="1885.22" x2="3884.39" y2="1885.22"/><line class="cls-26" x1="4278.09" y1="1760.27" x2="3824.28" y2="1760.27"/><line class="cls-26" x1="4339.39" y1="1248.69" x2="4339.39" y2="1075.41"/><line class="cls-26" x1="4292.24" y1="2409.76" x2="4289.88" y2="1048.3"/><line class="cls-26" x1="4241.55" y1="2568.89" x2="4243.22" y2="1321.19"/><line class="cls-26" x1="4190.87" y1="2113.89" x2="4193.22" y2="995.26"/><line class="cls-26" x1="4141.36" y1="2566.53" x2="4141.36" y2="966.97"/><line class="cls-26" x1="3992.84" y1="2418.01" x2="3993.42" y2="2216.31"/><line class="cls-26" x1="3992.84" y1="2189.33" x2="3992.84" y2="2062.03"/><line class="cls-26" x1="3992.84" y1="2004.27" x2="3992.84" y2="1642.39"/><line class="cls-26" x1="3992.84" y1="1594.06" x2="3992.84" y2="885.63"/><line class="cls-26" x1="3955.12" y1="2004.27" x2="4038.81" y2="2004.27"/><line class="cls-26" x1="3955.12" y1="2062.03" x2="4044.7" y2="2062.03"/><polyline class="cls-26" points="3691.08 2185.8 3806.59 2130.4 4141.36 2130.4"/><line class="cls-26" x1="3824.19" y1="2257.7" x2="3825.45" y2="2090.32"/><line class="cls-26" x1="3720.55" y1="2033.4" x2="3948.04" y2="2033.74"/><line class="cls-26" x1="4044.7" y1="2033.74" x2="4478.48" y2="2033.74"/><line class="cls-26" x1="4394.79" y1="2075.04" x2="4949.98" y2="2075.04"/><polyline class="cls-26" points="3992.84 2455.73 3518.98 2455.73 3518.85 2506.39 3517.8 2917.8 3720.55 2811.71 3720.55 2663.19"/><line class="cls-26" x1="4241.55" y1="2500.52" x2="3517.8" y2="2500.52"/><line class="cls-26" x1="3517.8" y1="2455.73" x2="3517.8" y2="2402.69"/><polyline class="cls-26" points="3948.04 2565.36 3948.04 2710.34 3885.57 2710.34 3884.39 2566.53 3885.57 826.7"/><polyline class="cls-26" points="3945.69 2650.22 3820.74 2650.22 3797.16 2565.36"/><polyline class="cls-26" points="3818.38 2647.87 3806.59 2663.19 3431.75 2660.83 3384.6 2805.82 3384.6 2917.8"/><line class="cls-25" x1="3654.54" y1="2402.69" x2="3654.54" y2="2662.24"/><line class="cls-26" x1="4190.87" y1="2462.8" x2="4241.55" y2="2485.2"/><polyline class="cls-26" points="4338.21 2518.2 4283.99 2518.2 4190.87 2566.53"/><line class="cls-26" x1="4289.88" y1="2568.89" x2="4289.88" y2="2518.21"/><polyline class="cls-26" points="4003.45 2409.76 3841.96 2337.86 3825.45 2337.86 3733.51 2337.86"/><line class="cls-26" x1="3824.28" y1="2565.36" x2="3825.45" y2="2337.86"/><line class="cls-26" x1="3847.85" y1="2565.36" x2="3847.85" y2="2402.69"/><line class="cls-26" x1="3721.52" y1="1618.13" x2="3948.04" y2="1617.64"/><line class="cls-26" x1="3584.99" y1="1526.87" x2="3653.36" y2="1463.22"/><line class="cls-26" x1="3666.32" y1="1551.63" x2="3681.65" y2="1484.44"/><polyline class="cls-26" points="3825.45 1248.69 3824.28 1028.26 3841.96 949.29"/><line class="cls-26" x1="4104.82" y1="949.29" x2="3087.56" y2="951.64"/><line class="cls-26" x1="4242.13" y1="2139.06" x2="4951.16" y2="2138.65"/><polyline class="cls-26" points="3584.99 2083.25 3584.99 2189.33 4038.81 2189.33 4141.36 2157.18 4243.23 2157.98"/><circle class="cls-26" cx="3444.72" cy="1871.07" r="12.97"/><circle class="cls-26" cx="3444.72" cy="1779.13" r="12.97"/><line class="cls-26" x1="3451.79" y1="2033.74" x2="3451.79" y2="1881.93"/><line class="cls-26" x1="3437.53" y1="1860.28" x2="3437.53" y2="1789.92"/><path class="cls-26" d="M3431.75,1873.07l-143.81,49.87s-8.27,4.9-10.61,7.07c-3.85,3.56-13,16.5-13,16.5"/><line class="cls-26" x1="3319.77" y1="1731.98" x2="3431.75" y2="1775.02"/><line class="cls-26" x1="3452.14" y1="1768.5" x2="3452.14" y2="1367.17"/><line class="cls-26" x1="3452.14" y1="1320.59" x2="3452.14" y2="801.94"/><line class="cls-26" x1="3319.77" y1="1946.51" x2="3319.77" y2="2185.8"/><polyline class="cls-26" points="3389.32 1968.91 3389.32 2185.8 3218.99 2185.8 3088.73 2185.8"/><line class="cls-26" x1="3117.02" y1="1946.51" x2="3117.02" y2="2185.8"/><line class="cls-26" x1="3389.32" y1="2033.4" x2="3117.02" y2="2033.57"/><line class="cls-26" x1="3389.32" y1="2083.25" x2="3219.58" y2="2083.25"/><line class="cls-26" x1="3389.32" y1="2165.79" x2="3219.58" y2="2106.37"/><line class="cls-26" x1="3219.58" y1="2123.08" x2="3087.56" y2="2077.35"/><line class="cls-26" x1="3319.77" y1="1881.68" x2="3087.56" y2="1881.68"/><line class="cls-26" x1="3319.77" y1="1779.13" x2="3085.2" y2="1779.13"/><line class="cls-26" x1="3085.2" y1="1405.46" x2="3315.64" y2="1405.46"/><polyline class="cls-26" points="3087.56 1472.65 3584.99 1473.83 3643.93 1445.54"/><line class="cls-26" x1="3450.61" y1="1405.46" x2="3584.99" y2="1405.46"/><polyline class="cls-26" points="4170.13 1124.92 4274.56 1040.05 4474.95 801.94"/><polyline class="cls-26" points="3825.13 1188.25 4546.85 1188.25 4652.94 999.97"/><line class="cls-26" x1="3401.08" y1="1186.22" x2="3452.14" y2="1186.21"/><line class="cls-26" x1="3160.64" y1="1186.21" x2="3322.13" y2="1186.22"/><line class="cls-26" x1="3086.38" y1="1213.33" x2="3199.54" y2="1213.33"/><line class="cls-26" x1="3086.38" y1="1124.92" x2="4419.55" y2="1124.92"/><line class="cls-26" x1="3160.64" y1="1027.85" x2="3087.56" y2="1028.26"/><line class="cls-26" x1="3274.98" y1="1056.55" x2="3160.64" y2="1056.55"/><line class="cls-26" x1="3454.74" y1="1056.55" x2="3364.5" y2="1056.55"/><line class="cls-26" x1="3584.99" y1="1056.55" x2="4289.88" y2="1056.55"/><polyline class="cls-26" points="3085.2 860.88 3824.28 862.06 3824.28 800.76"/><line class="cls-26" x1="3275.2" y1="1551.63" x2="3274.98" y2="860.88"/><polyline class="cls-26" points="3087.56 1588.17 3160.63 1551.63 3160.64 801.94"/><line class="cls-26" x1="3315.64" y1="1613.51" x2="3118.79" y2="1614.69"/><line class="cls-26" x1="3118.79" y1="1699.56" x2="3119.97" y2="800.17"/><path class="cls-26" d="M3500.12,2352h-70.73l-70.72,279.37s-7.21,22.78-8.25,30.64c-.81,6.14-.9,18.63,0,24.76s3.17,18.81,7.07,23.57c3.17,3.88,17.68,9.43,17.68,9.43l34.48,9"/><line class="cls-26" x1="3447.07" y1="2296.6" x2="3088.73" y2="2296.6"/><line class="cls-26" x1="3587.35" y1="2805.82" x2="3221.93" y2="2805.82"/><polyline class="cls-26" points="3375.17 2753.95 3323.31 2753.95 3323.31 2805.82"/><line class="cls-26" x1="3292.66" y1="2753.96" x2="3221.93" y2="2753.96"/><line class="cls-26" x1="3171.25" y1="2729.2" x2="3216.04" y2="2729.2"/><line class="cls-26" x1="3166.53" y1="2662.01" x2="3289.12" y2="2662.01"/><line class="cls-26" x1="3455.33" y1="2917.8" x2="3450.61" y2="2565.36"/><line class="cls-26" x1="3384.6" y1="2878.26" x2="3553.16" y2="2877.72"/><line class="cls-26" x1="3401.47" y1="2753.96" x2="3587.35" y2="2753.96"/><line class="cls-26" x1="3319.77" y1="2565.36" x2="3319.77" y2="2296.6"/><line class="cls-26" x1="3401.47" y1="2455.73" x2="3276.16" y2="2455.73"/><line class="cls-26" x1="3319.77" y1="2500.52" x2="3391.79" y2="2500.52"/><path class="cls-26" d="M3117,2296.6v292.33a15.84,15.84,0,0,1-1.17,5.89,23.72,23.72,0,0,1-4.72,5.9,4.42,4.42,0,0,1-2.85,1.18h-17.19"/><line class="cls-26" x1="4312.26" y1="995.26" x2="4704.8" y2="1214.51"/><line class="cls-26" x1="4348.96" y1="951.64" x2="4792.03" y2="1197.41"/><path class="cls-26" d="M4387,906.42l373.18,206.71s12.21,5.78,16.51,7.08c3.15,1,13,2.35,13,2.35h148.82"/><path class="cls-26" d="M4429.36,856.11l141.07,79s12.28,3.37,16.5,3.54c4.45.17,13.62-.52,17.68-2.36,2.85-1.29,7.42-5.85,9.43-8.25a38.16,38.16,0,0,0,3.54-5.89,50.6,50.6,0,0,0,3.53-9.43c.69-3.77.8-11.58,0-15.33-.6-2.84-3.21-8.13-4.71-10.61a38.53,38.53,0,0,0-16.51-16.5l-113.16-66"/><line class="cls-26" x1="4452.51" y1="828.6" x2="4736.63" y2="985.83"/><line class="cls-26" x1="4621.11" y1="979.93" x2="4713.05" y2="1032.98"/><line class="cls-26" x1="4520.92" y1="1166.18" x2="4724.84" y2="797.23"/><line class="cls-26" x1="4612.86" y1="1225.11" x2="4822.68" y2="818.44"/><line class="cls-26" x1="4581.03" y1="1207.43" x2="4684.59" y2="1016.55"/><line class="cls-26" x1="4725.68" y1="1006.46" x2="4796.75" y2="1041.23"/><line class="cls-26" x1="4722.13" y1="1092.05" x2="4854.5" y2="843.2"/><line class="cls-26" x1="4667.08" y1="901.73" x2="4755.48" y2="948.7"/><line class="cls-26" x1="4744.88" y1="804.3" x2="4684.59" y2="911.03"/><line class="cls-26" x1="4581.03" y1="804.3" x2="4702.99" y2="878.46"/><line class="cls-24" x1="4662.37" y1="810.19" x2="4723.93" y2="841.38"/><line class="cls-26" x1="4845.69" y1="948.7" x2="5264.12" y2="950.47"/><line class="cls-26" x1="4999.21" y1="949.58" x2="4999.21" y2="1321.94"/><line class="cls-26" x1="5084.98" y1="949.71" x2="5085.54" y2="1334.74"/><line class="cls-26" x1="4876.36" y1="1214.51" x2="5184.56" y2="1053.02"/><line class="cls-26" x1="4796.75" y1="1053.02" x2="4999.21" y2="1053.02"/><line class="cls-26" x1="4824.74" y1="985.83" x2="4999.21" y2="985.83"/><polyline class="cls-26" points="5030.45 948.7 4999.21 1016.55 4809.23 1016.55"/><polyline class="cls-26" points="4876.9 1248.69 5158.62 1248.69 5158.62 1320.59 5084.98 1320.59"/><path class="cls-26" d="M5162.59,1006.46l26.68,58.34s3.08,5,4.72,5.9c1.8,1,8.25,1.18,8.25,1.18h43.61s5.81,1,7.07,2.35c1.65,1.79,2.36,9.43,2.36,9.43l-1.18,254.61s-.63,9.76-1.18,13c-1.21,7-7,27.74-7,27.74"/><line class="cls-26" x1="5043.1" y1="1127.13" x2="5043.1" y2="1248.69"/><line class="cls-26" x1="4943.96" y1="1179.08" x2="4944.09" y2="1313.52"/><path class="cls-26" d="M5682,1617.64l231-3.54-202.74,188.6s-13,7.08-25.93,8.25c-10.86,1-43.62,0-43.62,0V1709.58s.36-13.33,1.18-17.68c1.27-6.68,5.32-19.79,8.25-25.93,6.23-13.06,23.63-36.41,31.83-48.33,6.58-9.57,22.93-26.89,27.11-37.72,4.7-12.18,7-38.87,5.89-51.87-1.35-15.6-12.59-45.3-17.68-60.11-3.39-9.89-15.32-38.9-15.32-38.9"/><line class="cls-26" x1="5805.19" y1="1452.53" x2="5805.19" y2="1714.42"/><line class="cls-26" x1="5641.01" y1="1702.33" x2="5805.19" y2="1702.33"/><path class="cls-26" d="M5723.1,1617s1,11.19.14,14.77c-1,4.23-5.8,11.73-8.25,15.33-2.82,4.14-9.84,11.4-13,15.32-2.76,3.46-8.37,10.33-10.61,14.15-1.47,2.5-4.11,7.77-4.72,10.61-.78,3.7,0,15.14,0,15.14V1811"/><line class="cls-26" x1="5714.59" y1="1550.5" x2="5910.67" y2="1550.45"/><line class="cls-26" x1="5705.56" y1="1662.43" x2="5861.75" y2="1661.8"/><line class="cls-26" x1="5879.61" y1="1550.45" x2="5879.61" y2="1614.61"/><line class="cls-26" x1="5805.19" y1="1504.41" x2="5910.67" y2="1519.8"/><line class="cls-26" x1="5686.7" y1="1766.33" x2="5749.38" y2="1766.33"/><polyline class="cls-26" points="5910.67 1884.04 5805.76 1882.86 5805.19 2166.91"/><line class="cls-26" x1="5910.67" y1="1946.51" x2="5756.25" y2="1946.51"/><line class="cls-26" x1="5904.94" y1="1990.12" x2="5739.75" y2="1990.12"/><polyline class="cls-26" points="5880.02 2034.92 5705.56 2034.92 5705.56 2255.34 5861.16 2255.34 5910.67 2199.94"/><polyline class="cls-26" points="5830.51 2122.14 5633.66 2122.14 5633.66 2240.02"/><line class="cls-26" x1="5608.91" y1="2166.94" x2="5904.77" y2="2166.94"/><line class="cls-26" x1="5584.15" y1="2210.55" x2="5781" y2="2210.55"/><line class="cls-26" x1="5853.76" y1="2166.91" x2="5910.67" y2="2093.85"/><line class="cls-26" x1="5802.22" y1="2079.71" x2="5667.84" y2="2079.71"/><polyline class="cls-26" points="5861.75 1990.12 5861.16 1830.99 5910.67 1777.95"/><path class="cls-26" d="M5666.66,2461.62s16.21-5.55,21.22-8.25c5.4-2.9,15.62-9.89,20-14.14s11.32-15.17,15.32-20c4.25-5.16,12.91-15.37,17.69-20,5.23-5.11,16.06-15.19,22.39-18.86,6-3.45,19.33-7.44,25.93-9.43,7.26-2.18,21.9-6.83,29.47-7.07,6.88-.22,20.62,2.46,27.11,4.71,7.6,2.64,21.78,10.61,28.29,15.33,5.91,4.28,16.48,14.49,21.22,20,4.41,5.15,15.33,22.39,15.33,22.39"/><line class="cls-26" x1="5698.49" y1="2355.54" x2="5501.64" y2="2355.54"/><path class="cls-26" d="M5489.85,2503.47V2399.15l109.65,60.35-134.4-.23-14.15-9.43s-12.2,16.93-16.5,22.39c-8.79,11.19-27,33-36.54,43.62-7.95,8.83-24.68,25.71-33,34.18-10.51,10.7-31.35,32.32-42.43,42.44-8.5,7.76-25.77,23.11-35.36,29.47-9.12,6-28.68,16.15-38.9,20-11.09,4.22-34.35,9.43-46,11.79s-35.35,5.43-47.15,7.07c-14.16,2-42.69,4.89-56.58,8.26-10.6,2.56-30.83,11-41.26,14.14-14.29,4.34-43.66,10.39-57.76,15.32-12.45,4.36-36.44,15.49-48.33,21.22-11.4,5.5-33.8,17.3-44.79,23.58-10.23,5.84-30.1,18.49-40.08,24.75-13.91,8.74-41.41,26.75-55.4,35.36-17.21,10.6-69.55,41.26-69.55,41.26v82.51"/><line class="cls-26" x1="5633.66" y1="2439.23" x2="5633.66" y2="2355.54"/><polyline class="cls-26" points="5596.6 2355.54 5597.12 2428.62 5584.15 2448.23"/><path class="cls-26" d="M5692.6,2505.24s-9.84,36.9-15.33,48.33c-4.13,8.62-16.19,23.69-21.21,31.82-3.75,6.07-8.81,20-14.15,24.76-7.42,6.56-27.39,11.53-36.54,15.32-14.41,6-42.71,19.5-57.76,23.58-10.06,2.72-30.84,5.69-41.26,5.89-14.21.27-42.44-4.3-56.58-5.89-12.09-1.37-36.21-4.68-48.32-5.9-7.36-.74-29.47-2.35-29.47-2.35"/><line class="cls-26" x1="5588.7" y1="2632.73" x2="5397.91" y2="2515.85"/><line class="cls-26" x1="5292.82" y1="2617.81" x2="5349.58" y2="2654.94"/><line class="cls-26" x1="5341.11" y1="2574.29" x2="5412.05" y2="2617.22"/><line class="cls-26" x1="5364.9" y1="2550.03" x2="5547.61" y2="2649.05"/><line class="cls-26" x1="5232.01" y1="2648.9" x2="5296.54" y2="2689.12"/><path class="cls-26" d="M5559.5,2355.54l-.1,145s6.42,12,9.43,15.33c3.23,3.59,11.39,9,15.32,11.79,5.18,3.71,15.53,11.26,21.22,14.14,3.08,1.56,9.57,4.12,13,4.72,5.22.92,21.21,0,21.21,0"/><polyline class="cls-26" points="5526.34 2355.54 5526.39 2392.08 5514.17 2411.81"/><path class="cls-26" d="M5425.79,2483s10.63,7.49,14.55,9.29c6.44,3,20.2,6.73,27.12,8.25,8.42,1.85,25.79,2.71,34.18,4.72,7.88,1.89,23.77,6.31,30.65,10.61,7.06,4.42,17.68,17.68,23.57,23.57,7.07,7.08,21,21.5,28.29,28.29,6,5.54,17.41,17.7,24.76,21.22,4.32,2.07,14.08,3.09,18.86,3.54,4.1.38,16.5,0,16.5,0"/><line class="cls-26" x1="5493.39" y1="2926.05" x2="5493.3" y2="2574.29"/><line class="cls-26" x1="5419.13" y1="2645.23" x2="5419.13" y2="2824.68"/><line class="cls-26" x1="5359.01" y1="2649.05" x2="5359.01" y2="2926.05"/><line class="cls-26" x1="5311.86" y1="2679.69" x2="5311.86" y2="2926.05"/><line class="cls-26" x1="5403.8" y1="2816.43" x2="5403.8" y2="2926.05"/><line class="cls-26" x1="5331.9" y1="2669.09" x2="5651.34" y2="2669.09"/><line class="cls-26" x1="5419.13" y1="2708.42" x2="5656.06" y2="2708.42"/><path class="cls-26" d="M5311.86,2758.72l209.82,0s13.28-.44,17.68,0c7.48.74,22.1,4.42,29.47,5.89,5.89,1.18,17.84,2.91,23.57,4.72,7.68,2.42,22.15,9.63,29.47,13,10.68,4.86,32.24,14.24,42.44,20,7.39,4.2,21.71,13.48,28.29,18.86a215.22,215.22,0,0,1,22.39,22.4c6.07,7.4,16.8,23.35,21.22,31.83,3.37,6.45,10.61,27.11,10.61,27.11l5.89,18.86"/><path class="cls-26" d="M5419.13,2807.62H5524s17.68.25,23.57.56c7.38.38,22.19,1.07,29.47,2.36a153,153,0,0,1,21.22,5.89c6.15,2.37,17.71,8.78,23.57,11.79,5.63,2.89,16.8,8.84,22.4,11.78,6.18,3.25,24.75,13,24.75,13"/><line class="cls-26" x1="5674.92" y1="2902.48" x2="5493.39" y2="2807.62"/><polyline class="cls-26" points="5669.02 2566.78 5744.46 2566.53 5744.46 2664.37 5910.67 2664.37"/><line class="cls-26" x1="5802.22" y1="2606.61" x2="5645.74" y2="2606.61"/><path class="cls-26" d="M5802.22,2561.82V2675s1.11,9.05,2.36,11.79c1.4,3.05,5.83,8.28,8.25,10.61a26.63,26.63,0,0,0,8.25,4.71c2.81.9,11.79,1.18,11.79,1.18H5913"/><path class="cls-26" d="M5651.34,2678.52l163.85,114.33s3.08,7,3.53,9.43c.63,3.48,0,10.61,0,14.15,0,3.83-.61,11.54,0,15.32a59.76,59.76,0,0,0,4.72,14.15c1.8,3.31,7.17,8.76,9.43,11.79,2.15,2.87,7.17,8.35,8.25,11.78,1.77,5.62-.72,17.73,0,23.58.3,2.41,2.36,9.43,2.36,9.43"/><path class="cls-26" d="M5909.49,2896.58s-19.46.73-25.94,1.18c-6.2.44-18.57,1.65-24.75,2.36-4.43.51-13.28,1.65-17.68,2.36-4.74.76-14.35,1.91-18.86,3.53a46.1,46.1,0,0,0-10.61,5.9,50.57,50.57,0,0,0-4.71,5.89"/><path class="cls-26" d="M5656.06,2737.45s29.54,18.92,38.89,25.94c7.7,5.77,22.14,18.52,29.47,24.75,8.29,7,25.55,20.39,33,28.29,5.34,5.66,14.64,18.21,18.86,24.75,4.71,7.32,12.58,22.88,16.5,30.65,5,9.89,18.86,40.08,18.86,40.08"/><line class="cls-26" x1="5717.28" y1="2782" x2="5815.19" y2="2792.85"/><line class="cls-26" x1="4802.11" y1="2808.79" x2="4802.64" y2="2922.52"/><line class="cls-26" x1="4876.39" y1="2761.74" x2="4876.9" y2="2922.52"/><line class="cls-26" x1="4927" y1="2732.12" x2="5139.76" y2="2922.52"/><line class="cls-26" x1="4951.16" y1="2922.52" x2="4951.16" y2="2753.74"/><line class="cls-26" x1="4876.9" y1="2805.43" x2="5008.92" y2="2805.43"/><line class="cls-26" x1="4741.34" y1="2878.94" x2="5493.39" y2="2877.55"/><line class="cls-26" x1="5049.09" y1="2685.5" x2="5049" y2="2922.52"/><polyline class="cls-26" points="5182.2 2837.65 5182.2 2786.96 5172.77 2766.92 4998.31 2654.94 4966.49 2596"/><polyline class="cls-26" points="5049 2776.3 5117.37 2732.12 5144.48 2679.69"/><line class="cls-26" x1="5126.8" y1="2799.93" x2="5126.8" y2="2921.34"/><line class="cls-26" x1="5225.81" y1="2735.1" x2="5225.81" y2="2918.98"/><line class="cls-26" x1="5126.8" y1="2835.04" x2="5311.86" y2="2835.04"/><path class="cls-26" d="M4385.36,2927.23s36.72-31.46,49.51-41.25c18.3-14,56.36-40.11,75.44-53.05,21.85-14.81,66.07-43.68,88.41-57.76,14.87-9.38,45-27.61,60.11-36.54,22.52-13.27,67.56-39.83,90.77-51.86,17.9-9.29,54.58-26.14,73.08-34.19,30.81-13.4,93.5-37.68,124.95-49.5,21.37-8,64.63-22.71,86-30.65,16.89-6.27,50.33-19.64,67.19-25.93,10.41-3.89,31.43-11.34,41.26-16.51,5.64-3,16.43-9.93,21.22-14.14,8-7,21.07-24.2,27.11-33,7.46-10.88,19.32-34.55,25.93-46,5.5-9.49,15.46-29.22,22.4-37.72,2.77-3.39,9-9.86,13-11.79,4.57-2.24,20-3.53,20-3.53s20.76,3.1,27.11,5.89c8.91,3.91,24.48,16,31.83,22.4,5.2,4.5,15.62,14,18.86,20,1.85,3.46,3.89,11.4,3.54,15.32-.4,4.47-4.51,12.82-7.08,16.5-8.58,12.31-31.31,32.65-43.61,41.26-7,4.91-22.65,12.27-30.65,15.32-6.27,2.4-19.36,5.68-25.93,7.08-11.37,2.41-34.35,6.68-46,7.07-6.8.22-20.32-1.93-27.11-2.36-4.12-.26-12.38,0-16.51,0H5137.4"/><path class="cls-26" d="M5175.13,2532.35a104.23,104.23,0,0,1-8.26-7.07,12.28,12.28,0,0,1-2.35-3.54c-.52-2,.64-8.11.64-8.11"/></g><g id="Highways-2" data-name="Highways"><path id="_295-2" data-name="295" class="cls-27" d="M4516.2,2927.23c148.08-75.74,285-166.79,431.09-244.78,163.23-87.15,322.54-70.55,446.92-215.84,123.4-144.14,113.12-312.42,194.54-471.21,52.57-102.52,210.52-220.4,346.08-354.78"/><path id="_695" data-name="695" class="cls-27" d="M3087.56,2231.77c150.58,0,311.71-19.63,456.22,26.19,146.22,46.37,294.47,58,437.23,112.66,103.27,39.51,350.32,59.2,385.49,167,23.86,73.15-6.29,146.7,28.21,223.57,37.81,84.24,65.77,122.42,152.9,150"/><path id="_695_Ramp" data-name="695 Ramp" class="cls-27" d="M4479.66,2928.41s-7.47-48.25-16.5-61.29"/><path id="_395_Ramp_W" data-name="395 Ramp W" class="cls-27" d="M3423.62,2072.42c20.27,64.66,28.5,138.38-48,159.35"/><path id="_395_End-2" data-name="395 End" class="cls-27" d="M3289,997c20,43.61,28,70.84,39.63,107.32"/><path id="_395_Ramp_E" data-name="395 Ramp E" class="cls-27" d="M3473.45,2237.68c-20.07-26.71-30.34-60.15-35.81-93.14"/></g></g><g id="Places"><g id="Eastern_Market" data-name="Eastern Market"><line class="cls-16" x1="4128.5" y1="2001.5" x2="4080.5" y2="1953.5"/><circle class="cls-28" cx="4050.11" cy="1923.35" r="50"/><rect class="cls-28" x="4000.11" y="1873.35" width="100" height="100" rx="12" ry="12"/><path class="cls-13" d="M4039.24,1892.82a8.54,8.54,0,1,0-8.53,8.54A8.54,8.54,0,0,0,4039.24,1892.82Z"/><path class="cls-13" d="M4056.91,1892.82a8.54,8.54,0,1,0,8.53-8.53h0A8.55,8.55,0,0,0,4056.91,1892.82Z"/><path class="cls-13" d="M4049.43,1942.16l.08,0a33.72,33.72,0,0,0,9.35,4l1.61,12.86a3.72,3.72,0,0,0,3.7,3.31h2.55a3.73,3.73,0,0,0,3.7-3.3l1.55-12.84a33.26,33.26,0,0,0,9.46-4.08,3.76,3.76,0,0,0,1.6-4.41l-8.61-26.08a8.74,8.74,0,0,0-8.3-6h-1.4a8.74,8.74,0,0,0-8.3,6l-8.6,26.08A3.78,3.78,0,0,0,4049.43,1942.16Z"/><path class="cls-13" d="M4017,1916.88l.21,12.64a4.39,4.39,0,0,0,2.24,3.75l2.54,1.44,3.07,24.78a3.29,3.29,0,0,0,3.28,2.92h4.74a3.28,3.28,0,0,0,3.26-2.92l3.07-24.78,2.55-1.44a4.37,4.37,0,0,0,2.21-3.75l.22-12.64a11,11,0,0,0-10.86-11.21H4028a11,11,0,0,0-11,11Z"/></g><g id="Capitol_Hill_Hotel" data-name="Capitol Hill Hotel"><line class="cls-16" x1="3883.5" y1="2065.5" x2="3838.5" y2="2020.5"/><circle class="cls-28" cx="3916" cy="2097.99" r="50"/><rect class="cls-28" x="3866" y="2047.99" width="100" height="100" rx="12" ry="12"/><path class="cls-13" d="M3942.8,2072.77c-1.73-.25-3.35-.46-5.09-.63v-6.46a4,4,0,0,0-3.67-4,192.42,192.42,0,0,0-36.08,0,4,4,0,0,0-3.67,4v6.46c-1.7.2-3.39.41-5.08.64a4.06,4.06,0,0,0-3.49,4v18.76c3-.51,6-.95,9.06-1.3v-7.46a2.55,2.55,0,0,1,1.61-2.42,18,18,0,0,1,12.81,0,2.55,2.55,0,0,1,1.61,2.42v6.28c1.73,0,3.45-.08,5.17-.08s3.44,0,5.17.08v-6.28a2.55,2.55,0,0,1,1.61-2.42,18,18,0,0,1,12.81,0,2.55,2.55,0,0,1,1.61,2.42v7.46c3,.35,6.05.79,9.06,1.3v-18.78A4,4,0,0,0,3942.8,2072.77Z"/><path class="cls-13" d="M3954,2122.39v-15.91a4,4,0,0,0-3.23-4,175,175,0,0,0-69.53,0,4,4,0,0,0-3.23,4v24.32a4.4,4.4,0,0,0,4.4,4.4h5.36a4.4,4.4,0,0,0,4.41-4.41v-5.86a176,176,0,0,0,47.65,0v5.87a4.4,4.4,0,0,0,4.4,4.4h5.36a4.41,4.41,0,0,0,4.41-4.4Z"/></g><g id="Union_Station" data-name="Union Station"><circle class="cls-29" cx="3735.18" cy="1343.04" r="50"/><rect class="cls-29" x="3685.08" y="1292.96" width="100" height="100" rx="12" ry="12"/><path class="cls-13" d="M3752.58,1314.34c-1.36-.44-2.68-.82-4-1.15V1309a2.16,2.16,0,0,0-1.78-2.14,71.67,71.67,0,0,0-23.2,0,2.17,2.17,0,0,0-1.8,2.14v4.22c-1.31.33-2.64.71-4,1.15-3.87,1.23-6.47,4.84-6.47,9.62v34.44a9,9,0,0,0,7.41,8.06l-5.45,8.84a3.3,3.3,0,1,0,5.78,3.2l.07-.13,1.83-2.72h28.44l1.83,2.72a3.3,3.3,0,0,0,5.85-3.07l-5.46-8.84a9,9,0,0,0,7.38-8.06V1324C3759,1319.18,3756.41,1315.57,3752.58,1314.34Zm-24-.07a1,1,0,0,1,.88-.94,39.86,39.86,0,0,1,11.44,0,1,1,0,0,1,.88.94v3.87a1,1,0,0,1-1.06.95h-11.08a1,1,0,0,1-1.06-.95Zm-9.26,38.82a4.55,4.55,0,1,1,4.55,4.55,4.55,4.55,0,0,1-4.55-4.55Zm4.41,17.28,2.35-3.74h18.19l2.35,3.74Zm22.74-12.75a4.55,4.55,0,1,1,4.54-4.55,4.55,4.55,0,0,1-4.54,4.55Zm4.88-28.89-2.74,11.75a1.94,1.94,0,0,1-1.89,1.52h-23.08a1.94,1.94,0,0,1-1.89-1.52l-2.77-11.74a1.76,1.76,0,0,1,1.33-2.11,1.72,1.72,0,0,1,.39,0h29a1.76,1.76,0,0,1,1.77,1.76,2.58,2.58,0,0,1,0,.39Z"/></g><g id="Union_Station_Metro" data-name="Union Station Metro"><circle class="cls-30" cx="3681.58" cy="1392.57" r="25"/><rect class="cls-30" x="3656.58" y="1367.57" width="50" height="50" rx="12" ry="12"/><polygon class="cls-13" points="3665.2 1409 3671.66 1409 3671.66 1387.65 3671.75 1387.65 3678.49 1409 3684.66 1409 3691.41 1387.44 3691.5 1387.44 3691.5 1409 3697.95 1409 3697.95 1376.14 3688.24 1376.14 3681.81 1398.18 3681.73 1398.18 3674.91 1376.14 3665.2 1376.14 3665.2 1409"/></g><g id="Stadium_Armory_Metro" data-name="Stadium Armory Metro"><circle class="cls-30" cx="4991.58" cy="1904.57" r="25"/><rect class="cls-30" x="4966.58" y="1879.57" width="50" height="50" rx="12" ry="12"/><polygon class="cls-13" points="4975.2 1921 4981.66 1921 4981.66 1899.65 4981.75 1899.65 4988.49 1921 4994.66 1921 5001.41 1899.44 5001.5 1899.44 5001.5 1921 5007.95 1921 5007.95 1888.14 4998.24 1888.14 4991.81 1910.18 4991.73 1910.18 4984.91 1888.14 4975.2 1888.14 4975.2 1921"/></g><g id="Potomac_Ave_Metro" data-name="Potomac Ave Metro"><circle class="cls-30" cx="4630.58" cy="2283.57" r="25"/><rect class="cls-30" x="4605.58" y="2258.57" width="50" height="50" rx="12" ry="12"/><polygon class="cls-13" points="4614.2 2300 4620.66 2300 4620.66 2278.65 4620.75 2278.65 4627.49 2300 4633.66 2300 4640.41 2278.44 4640.5 2278.44 4640.5 2300 4646.95 2300 4646.95 2267.14 4637.24 2267.14 4630.81 2289.18 4630.73 2289.18 4623.91 2267.14 4614.2 2267.14 4614.2 2300"/></g><g id="Eastern_Market_Metro" data-name="Eastern Market Metro"><circle class="cls-30" cx="4144.58" cy="2162.57" r="25"/><rect class="cls-30" x="4119.58" y="2137.57" width="50" height="50" rx="12" ry="12"/><polygon class="cls-13" points="4128.2 2179 4134.66 2179 4134.66 2157.65 4134.75 2157.65 4141.49 2179 4147.66 2179 4154.41 2157.44 4154.5 2157.44 4154.5 2179 4160.95 2179 4160.95 2146.14 4151.24 2146.14 4144.81 2168.18 4144.73 2168.18 4137.91 2146.14 4128.2 2146.14 4128.2 2179"/></g><g id="Capitol_South_Metro" data-name="Capitol South Metro"><circle class="cls-30" cx="3691.58" cy="2045.57" r="25"/><rect class="cls-30" x="3666.58" y="2020.57" width="50" height="50" rx="12" ry="12"/><polygon class="cls-13" points="3675.2 2062 3681.66 2062 3681.66 2040.65 3681.75 2040.65 3688.49 2062 3694.66 2062 3701.41 2040.44 3701.5 2040.44 3701.5 2062 3707.95 2062 3707.95 2029.14 3698.24 2029.14 3691.81 2051.18 3691.73 2051.18 3684.91 2029.14 3675.2 2029.14 3675.2 2062"/></g><g id="Federal_Center_Metro" data-name="Federal Center Metro"><circle class="cls-30" cx="3294.58" cy="2058.57" r="25"/><rect class="cls-30" x="3269.58" y="2033.57" width="50" height="50" rx="12" ry="12"/><polygon class="cls-13" points="3278.2 2075 3284.66 2075 3284.66 2053.65 3284.75 2053.65 3291.49 2075 3297.66 2075 3304.41 2053.44 3304.5 2053.44 3304.5 2075 3310.95 2075 3310.95 2042.14 3301.24 2042.14 3294.81 2064.18 3294.73 2064.18 3287.91 2042.14 3278.2 2042.14 3278.2 2075"/></g><g id="Judiciary_Square_Metro" data-name="Judiciary Square Metro"><circle class="cls-30" cx="3214.58" cy="1438.57" r="25"/><rect class="cls-30" x="3189.58" y="1413.57" width="50" height="50" rx="12" ry="12"/><polygon class="cls-13" points="3198.2 1455 3204.66 1455 3204.66 1433.65 3204.75 1433.65 3211.49 1455 3217.66 1455 3224.41 1433.44 3224.5 1433.44 3224.5 1455 3230.95 1455 3230.95 1422.14 3221.24 1422.14 3214.81 1444.18 3214.73 1444.18 3207.91 1422.14 3198.2 1422.14 3198.2 1455"/></g><g id="NOMA_Metro" data-name="NOMA Metro"><circle class="cls-30" cx="3852.58" cy="890.57" r="25"/><rect class="cls-30" x="3827.58" y="865.57" width="50" height="50" rx="12" ry="12"/><polygon class="cls-13" points="3836.2 907 3842.66 907 3842.66 885.65 3842.75 885.65 3849.49 907 3855.66 907 3862.41 885.44 3862.5 885.44 3862.5 907 3868.95 907 3868.95 874.14 3859.24 874.14 3852.81 896.18 3852.73 896.18 3845.91 874.14 3836.2 874.14 3836.2 907"/></g></g><g id="Edge-2" data-name="Edge"><rect id="Frame-2" data-name="Frame" class="cls-19" x="3085.2" y="800.76" width="2827.83" height="2126.47"/></g></g></g></svg>