<svg xmlns="http://www.w3.org/2000/svg" xmlns:xlink="http://www.w3.org/1999/xlink" viewBox="0 0 3629.93 4340.99"><defs><style>.cls-1,.cls-11,.cls-12,.cls-17,.cls-20,.cls-21,.cls-23,.cls-24,.cls-25,.cls-26,.cls-27,.cls-28,.cls-5,.cls-6,.cls-7,.cls-8,.cls-9{fill:none;}.cls-2{clip-path:url(#clip-path);}.cls-3{fill:#a1d5b2;}.cls-4{fill:#0071bc;}.cls-17,.cls-20,.cls-21,.cls-5,.cls-6,.cls-7,.cls-8,.cls-9{stroke:#000;}.cls-11,.cls-12,.cls-17,.cls-20,.cls-21,.cls-23,.cls-24,.cls-25,.cls-26,.cls-27,.cls-28,.cls-5,.cls-6,.cls-7,.cls-8,.cls-9{stroke-miterlimit:10;}.cls-5,.cls-6,.cls-7,.cls-8,.cls-9{stroke-width:4px;}.cls-6{stroke-dasharray:19.9 19.9;}.cls-7{stroke-dasharray:19.82 19.82;}.cls-8{stroke-dasharray:20.43 20.43;}.cls-9{stroke-dasharray:19.88 19.88;}.cls-10{fill:#009245;}.cls-11,.cls-12,.cls-24,.cls-28{stroke:#f6f0c5;}.cls-11,.cls-12,.cls-20{stroke-width:25px;}.cls-12{stroke-dasharray:11.06 11.06;}.cls-13{fill:#c1272d;}.cls-14{fill:#fff;}.cls-15{font-size:72px;}.cls-15,.cls-18{fill:#1b1464;font-family:Ingra-Light, Ingra;}.cls-16{letter-spacing:-0.01em;}.cls-17{stroke-width:11px;}.cls-18{font-size:150px;}.cls-19{letter-spacing:-0.05em;}.cls-21{stroke-width:12px;}.cls-22{clip-path:url(#clip-path-2);}.cls-23,.cls-25,.cls-26,.cls-27{stroke:#fffce9;}.cls-23,.cls-26{stroke-width:10px;}.cls-23{stroke-dasharray:10;}.cls-24,.cls-28{stroke-width:50px;}.cls-24{stroke-dasharray:20;}.cls-25{stroke-width:20px;}.cls-27{stroke-width:5px;}.cls-29{fill:#29abe2;}.cls-30{fill:#f15a24;}.cls-31{fill:#fbb03b;}</style><clipPath id="clip-path"><rect class="cls-1" x="3233.38" y="-3222.42" width="2151.47" height="2852.83" transform="translate(2513.11 -6105.11) rotate(90)"/></clipPath><clipPath id="clip-path-2"><rect class="cls-1" x="1128.38" y="1838.58" width="2151.47" height="2852.83" transform="translate(5469.11 1060.89) rotate(90)"/></clipPath></defs><title>map_vert</title><g id="Main_V" data-name="Main V"><g id="Background-3" data-name="Background"><rect id="Ground" class="cls-3" x="12.5" y="12.5" width="3453" height="2553"/></g><g id="Water-3" data-name="Water"><g id="Simplified-4" data-name="Simplified"><path id="Rivers" class="cls-4" d="M2494.91,1216.28c-.36-.77-24.34-32-26-42.52-1.47,14.7,20.29,72.78,21.07,79.29,3.6,30.23,3.3,64.16-28.55,80.82-11.84,6.19-29.85,0-39.38,7.2-5.91,4.47-4,14.29-8.07,19.6-5.39,7.09-13.5,16.09-17.94,21.74-7.51,9.56-19.16,17.76-23.78,29.73-4.69,12.16-5.3,31.36,3.23,31.36,7,0,9.94,10.09,6.68,30.06-5.82,35.73-44.56,73.42-73.74,88.18-38.19,19.32-47.66,34.35-88.74,30.71-25.87-2.28-25.89-1.32-41.61,17.84-9.14,11.13-9.53,19.16-19.82,29.72-6.81,7-9.44-1.52-13.87,0-4,1.36-3.5,22.12-11.89,19.81-10-2.73-4.24-21.58-4.89-27.47-3.61-32.68-1.68-48.94-24.83-75.56-13.26-15.25-46.13-39.37-63.29-47.29-13-6-33.61,1.87-31.82,7.66,3.82,12.34,36.8,32.1,9.91,27.74-10.12-1.65-37.43-36.53-42.92-43.37-23-28.57-35.36-83.2-10.59-109.21,12.45-13.06,20.77-12.38,15.45-26.35-5.59-14.69-29.58-12.21-31.3-29.13-2.14-21.12,28.62-18.89,37.65-33.69,2.86-4.67,7.61-37.87,4-37.65,7.24-.45,22.83,20.76,20.25-6-1.58-16.31-20.89-16-24.21-25.68-1.74-5,13.16-11.89,11.89-19.81-2.15-13.47-16.55-1.93-19.81-15.86-6.14-26.19,24.17-27.05,31.7-41.61,8.78-17-9.5-9.41-7.93-17.83,4-21.22,22.39-25.37,21.8-49.54-.57-23.27-11-20.65-21.31-34.31-5.65-7.52,7.08-38.73,7.28-43.34-5.2,1.61-14.48,28.09-14,32,2.14,17.45,21.24,22.66,25.06,37.73,4.13,16.32-8.36,28.3-13.87,41.61-2.32,5.6-9,10-10.9,15.85-2.77,8.61,9.91,7.7,9.91,11.89,0,5.52-24.28,22-27.4,29.17-15.72,36.08,8.86,19,15.51,32.25,2.86,5.74-13,18.81-11.89,24.77,1.35,7.64,15.58,7.61,16.84,13.87,7.48,37.33-3-2-12.88,12.88-8.12,12.18,4.64,21.78-2,35.14-6.44,12.88-26.35,7.54-35.23,19.21-13.79,18.11,1.41,25.86,11.51,36.8,23,24.9,16.64,10.32,0,33.69-6.62,9.3-8.33,29.58-16.62,32.14-14.49,4.47-42-12-54.71-16.29-47.16-16.08-94.52-.48-129-47.39-12.56-17.07-16.31-34.57-29.5-49.7-21.26-24.39-41.33-35.55-53.72-66.78-10-25.12-25.53-41.24-36.63-64.53-10.81-22.69-12.33-50.15-23.57-73.33-25.52-52.63-72.14-85.29-128.78-90.89-29.88-3-50.25-3.51-76.7.78-30.07,4.88-54.58,1.48-82.85-.5-40.46-2.82-37.92-2.28-67.37-27.74-11.22-9.69-3.08-15.72-18.92-11.92C1232.13,974.51,1228,995,1223,996c1.65-.34-24.93-12.54-26.49-13.38-17.41-9.39-16.08-9.83-29-24.27-3.5-3.91-10.82-14.35-15.62-16.19-15.08-5.77-9.91,1.29-16.59,3-2.62.67,1.56,12.52-9.08,13.34-5.92.45-14.91-13.58-19.07-17.1-11.57-9.79-12.65-4.57-20.91-18.14-6.45-10.61-3.11-30.2-5.85-40.2-13.29-48.57.72-84.66,23.71-134.75,11.93-26,23.35-37.92,9.84-63.11-9.87-18.43-30.8-45.93-47.67-58-42.95-30.78-102.53-38.6-142.68-73.77-22.23-19.48-43.08-36.2-70.86-48.51-28.67-12.72-60.08-1.7-86.61-11.47-23-8.46-35.2-39.8-62.28-50.27-30.72-11.87-65.91-10.67-98.07-8.89-60.15,3.33-117.92,9.07-178,1.32-68-8.78-129.72-33.24-195.9-49.7-63.6-15.82-124.9-44.1-162.12-101.25C62.5,273.5,12.5,262.5,12.5,262.5v21.05c12-.05,39-.05,45,6.95,72.08,84.1,157.67,110,238.18,134.79,27.12,8.35,56.75,10.24,83.2,19.87,30.39,11.07,40.64,22.17,74,22.54,53.77.59,106.31,1.22,160.74-.43,51.63-1.56,84.19,26.08,131.48,43,55.4,19.78,113.3,30.25,155.2,74.24,40,42,73.78,58.76,128.6,76.52,24.09,7.81,54.2,17.22,61.3,45.72,7.71,30.89-15.07,41.43-29.72,61.43-12.52,17.09-26.88,49.62-20,71.71,6.36,20.52,24.25,29.86,31.84,51.5,16.58,47.26,21.63,67.38,68.54,78.31,3.53.82,10-9.26,16.73-7.33,2.17.61,6.56,19.7,8.47,22.08,18,22.3,32.57,27.18,60.37,29.68,41.61,3.74,76.23,25.32,123.37,17.59,39.37-6.46,78.36-2.64,116.91,2,58.61,7,93.56,25.56,123.61,78.51,21.69,38.24,43,74.48,66.61,111.71,11.56,18.23,18.06,40.62,31.71,57.47,14.06,17.36,28,27.57,39.63,47.55,35.72,61.2,68.67,75.7,136,91.13,60.67,13.9,35.23,69.64,69.16,109.46,15,17.55,43,28,42.47,43.14-.51,14.86,6.85,31.51,25.76,21.79,3.77-1.93-3-14.85,4.66-15.88,13.08-1.77,24.84,17.46,28.88,27.56,4.58,11.47,7.68,21.82,2.13,33.9-2.36,5.13-21.27,2-21.8,5.94-.23,1.72,28.56,17.13,30.56,19.07,12.67,12.27,17.71,30,19.73,47.12,2.68,22.84,1.19,62.36-22.17,70.75-21.13,7.59-40.22-23-40.22,10.61,0,10,10.06,32,12.1,34.75,5,6.7,13-7.2,19.23,8.09,8.24,20.23-8.63,44.07-3.17,67.22,3.3,14,12.91,26.88,13.67,41.6.77,15-7.25,31-8.42,46.26-1.43,18.6,13.55,68.61-4.83,81.35-14.94,10.36-30.47-9.95-52.14,13.08-31.43,33.38-1.12,35.69,7.92,67.37,2.26,7.92-1.35,29.17,0,39.63,1.62,12.52,5.58,20,5.6,33,.06,26.53-6.16,62.13,2.2,86.38,4.25,12.33,15.36,20.9,19.94,33.17,5.12,13.71,7.34,39.43,9.51,54.18,7.46,50.65-5.79,129.26-60.23,146.67-29.36,9.38-57.17,5.13-85.34-2.72-36.87-10.29-20.4,3.21-48.22,21.82h220c.16-33.44,10.94-32.34,29.35-51.8,12.73-13.45,15-3.89,10.58-18.33-.17-.56-15.7-4.08-18.13-7.15-5.68-7.17-5.36-19.51-6.06-28-2.31-27.83,3-72.22,22.55-93.94,29.66-32.93,56.76,5.58,86.55-11.07,11.14-6.22,26.06-42.6,7.92-51.31-15.28-7.33-7.63,13.78-13.87,13.87-13.69.19-21.64-10.13-33.68-13.87-31.53-9.79-40.56,1.71-45.94-39.31-3.51-26.77-25.13-60.83-15.15-85.62,5.21-12.93,25.8-36.12,32-42.92,11.07-12.13,40.9-28.51,39.9-51.19-1-23.79-39.69-46.5-44.81-65.13-3.57-13,6.08-23.39,5.44-37.86-.81-18.19-11.58-25.69-18.13-43.18-21.39-57.16,16-144.44,32.8-199.52,8-26.1,13-50.55,33.69-69.35,15.88-14.4,24.16-17.94,36.31-36,9.49-14.1,8.94-20.75,25.12-25.45,11.44-3.31,19.33,8.3,35.76.65,13.8-6.43,24.23-21.93,38.31-29.25,15.73-8.18,39.1-8.93,52.74-20.93,9.9-8.71,19.5-28.4,27.74-39.63,24.09-32.84,15.06-61.28,26.38-97.22,3.09-9.82,33.46-77.87,37-75.17,8.78,6.62-1.74,18.2,15.85,13.87,10.39-2.56,10.46-10.25,16.11-16.67,11.61-13.19,27.79-34.16,31.81-51.17C2503.42,1276,2502,1231.72,2494.91,1216.28ZM1914.55,1430c16.29-6.75,29.11,21.83,23.49,32.75C1923.66,1490.67,1904.25,1434.23,1914.55,1430Zm87,145.53c-7.85,10.77-17-18-21.56-20.7-9.52-5.62-21.54-7-28.94-12.59-5.71-4.36-39.9-59.25-24.56-56.76C1935,1486.85,2005.23,1570.38,2001.5,1575.5Zm109.22,104.14c-.2,0-20.64-51.71-44.22-89.14-15.71-24.94-39.55-39-35-43.62C2091.5,1485.5,2132.15,1674.58,2110.72,1679.64ZM2385.15,1426a196.17,196.17,0,0,0-4.65,19.49,36.79,36.79,0,0,1-4-10c-2.19-11,10.81-46,23.51-45.16C2409.88,1391,2388.82,1414.27,2385.15,1426Z"/></g></g><g id="Borders-2" data-name="Borders"><g id="MD_VA" data-name="MD/VA"><path class="cls-5" d="M12.5,283.55c2.71,0,6.19,0,10,.05"/><path class="cls-6" d="M42.36,285c6.89,1,12.72,2.69,15.14,5.51,72.08,84.1,157.67,110,238.18,134.79,27.12,8.35,56.75,10.24,83.2,19.87,30.39,11.07,40.64,22.17,74,22.54,53.77.59,106.31,1.22,160.74-.43,51.63-1.56,84.19,26.08,131.48,43,55.4,19.78,113.3,30.25,155.2,74.24,40,42,73.78,58.76,128.6,76.52,24.09,7.81,54.2,17.22,61.3,45.72,7.71,30.89-15.07,41.43-29.72,61.43-12.52,17.09-26.88,49.62-20,71.71,6.36,20.52,24.25,29.86,31.84,51.5,16.58,47.26,21.63,67.38,68.54,78.31,3.53.82,10-9.26,16.73-7.33,2.17.61,6.56,19.7,8.47,22.08,18,22.3,32.57,27.18,60.37,29.68,41.61,3.74,76.23,25.32,123.37,17.59,39.37-6.46,78.36-2.64,116.91,2,58.61,7,93.56,25.56,123.61,78.51,21.69,38.24,43,74.48,66.61,111.71,11.56,18.23,18.06,40.62,31.71,57.47,14.06,17.36,28,27.57,39.63,47.55,35.72,61.2,68.67,75.7,136,91.13,60.67,13.9,35.23,69.64,69.16,109.46,15,17.55,43,28,42.47,43.14-.51,14.86,6.85,31.51,25.76,21.79,3.77-1.93-3-14.85,4.66-15.88,13.08-1.77,24.84,17.46,28.88,27.56,4.58,11.47,7.68,21.82,2.13,33.9-2.36,5.13-21.27,2-21.8,5.94-.23,1.72,28.56,17.13,30.56,19.07,12.67,12.27,17.71,30,19.73,47.12,2.68,22.84,1.19,62.36-22.17,70.75-21.13,7.59-40.22-23-40.22,10.61,0,10,10.06,32,12.1,34.75,5,6.7,13-7.2,19.23,8.09,8.24,20.23-8.63,44.07-3.17,67.22,3.3,14,12.91,26.88,13.67,41.6.77,15-7.25,31-8.42,46.26-1.06,13.82,6.93,45,3.58,65.3-.14.84-.48,2.46-.48,2.46l-13.11,360.55s.15,7.51.08,11.34c-1,47-18.06,101.11-62.1,115.2-29.36,9.38-57.17,5.13-85.34-2.72-27.07-7.55-25.39-2.29-33.59,8.41"/><path class="cls-5" d="M1839.23,2559.25a67.39,67.39,0,0,1-7.91,6.12"/></g><g id="DC_MD" data-name="DC/MD"><line class="cls-5" x1="2040.23" y1="2059.23" x2="2047.32" y2="2052.18"/><line class="cls-7" x1="2061.35" y1="2038.19" x2="2615.77" y2="1485.63"/><polyline class="cls-5" points="2622.79 1478.64 2629.87 1471.58 2622.82 1464.49"/><line class="cls-8" x1="2608.42" y1="1450" x2="2039.76" y2="877.6"/><polyline class="cls-5" points="2032.56 870.35 2025.51 863.26 2018.46 870.35"/><line class="cls-9" x1="2004.44" y1="884.45" x2="1674.94" y2="1215.74"/><line class="cls-5" x1="1667.93" y1="1222.79" x2="1660.88" y2="1229.88"/></g></g><g id="Parks-3" data-name="Parks"><path id="Roosevelt_Island" data-name="Roosevelt Island" class="cls-10" d="M1914.55,1430c16.29-6.75,29.11,21.83,23.49,32.75C1923.66,1490.67,1904.25,1434.23,1914.55,1430Z"/><path id="LBJ_Island" data-name="LBJ Island" class="cls-10" d="M2001.5,1575.5c-7.85,10.77-17-18-21.56-20.7-9.52-5.62-21.54-7-28.94-12.59-5.71-4.36-39.9-59.25-24.56-56.76C1935,1486.85,2005.23,1570.38,2001.5,1575.5Z"/><path id="East_Potomac_Park" data-name="East Potomac Park" class="cls-10" d="M2110.72,1679.64c-.2,0-20.64-51.71-44.22-89.14-15.71-24.94-39.55-39-35-43.62C2091.5,1485.5,2132.15,1674.58,2110.72,1679.64Z"/><path id="National_Mall" data-name="National Mall" class="cls-10" d="M1959.8,1476a107.18,107.18,0,0,0,14.87,25.53c5.49,6.84,32.8,41.72,42.92,43.37,26.89,4.36-6.09-15.4-9.91-27.74-1.79-5.79,18.82-13.66,31.82-7.66a151.77,151.77,0,0,1,18.23,10.5h0c7.27,5,9.27,6.32,9.27,6.32V1502h134v-40.25l-6-4L2184,1478H2067v-64h-32v61.42l-75,.58"/><path id="Arlington_Cemetery" data-name="Arlington Cemetery" class="cls-10" d="M1896,1614c50.68-13.35,38.08-102.68,0-118C1827.33,1468.37,1831.77,1595.7,1896,1614Z"/></g><g id="Highways-3" data-name="Highways"><g id="Simplified-5" data-name="Simplified"><path id="_495" data-name="495" class="cls-11" d="M1388.5,1011.5c15.78-67.57,42.06-43.07,78.67-75.87,37.2-33.31,12.33-31.54,20.33-73.13,22.12-115.07,103.58-106.25,204-119,40.35-5.12,45.67-19.8,89,9,20.36,13.53,30.51,50.35,59.64,55.88,50.82,9.64,52.6-36.68,84.48-48.1,35.39-12.67,76.66,3.54,116.09-1.71,63.74-8.48,130.87-14,193.79-22.07,82.07-10.51,184.56-33.54,269-26,183.92,16.42,277.69,215.59,329.74,376,30.89,95.15,60.2,188.08,71.26,289,10.87,99.2,47.6,204.07-6.49,297.81-38.2,66.18-85.67,160.81-150.51,205.19-83.24,57-170.95,16.88-262.56,34.62-47.56,9.22-69.66,31-113.44,49.38-43.4,18.21-94.95,9.31-138,27-42.68,17.54-69.39,55-114.07,69.1-51.77,16.33-116.47,4.23-167.71-9-108.39-28.11-179-58.29-291.22-26.05-101.74,29.23-199.8,58.12-300.48,28.45-120.83-35.6-160.84-77.39-155.55-199.91,4.68-108.32-17-237.39,0-348.54,15.38-100.38,8.27-195.32,54.2-293.14,18.66-39.74,40.82-84.25,68.47-117.09C1350.65,1065.38,1380.21,1047,1388.5,1011.5Z"/><path id="_270" data-name="270" class="cls-11" d="M1519.5,791.5s38.6-72,44-103c6.76-38.86-19.93-75.51-32.43-110.18C1504,503,1484.27,452.68,1444.5,387.5c-37.47-61.42-42.16-133.24-81.67-194.1C1326,136.6,1253.5,12.5,1253.5,12.5"/><path id="_270_Ramp" data-name="270 Ramp" class="cls-11" d="M1743.5,735.5c-41-14-159.62-68.52-188-101"/><path id="_95" data-name="95" class="cls-11" d="M2449.5,709.64c0-60,53.81-121.2,84-175.14,36.09-64.47,94.22-91.71,130.56-160.6,30.51-57.84,48.56-122.3,87.61-172.68C2803,135,2856.5,12.5,2856.5,12.5"/><path id="_295" data-name="295" class="cls-11" d="M2156.5,2040.5c-79.29-55.57-.7-194.62,12-241,13-47.37,10-109,43-150,23.18-28.79,87.31-49.69,119-72,55.82-39.29,159.32-156,191-225,17.62-38.35,13-68.61,39.72-106.75,30.48-43.52,51.88-59.62,68.82-114.24,24.23-78.09,57.1-196.58,121.46-255,49.95-45.35,72.39-30.57,99.23-96.94,23-56.81,34-117.73,58.77-175.06,53.07-122.93,106.21-214.09,194-314,84.88-96.6,257-278,257-278"/><path id="_395_695" data-name="395/695" class="cls-11" d="M2273.14,1607.14s-99.84-75.75-147.64-72.64c-25.49,1.66-56.95,3.24-78.5,17-22.66,14.47-25.44,42-43.5,56-29.29,22.71-56.4,2.2-78.5,17.5-26.4,18.27-21.09,27.79-38.5,54.74-56.71,87.78-80.14,109.72-174.28,154-65.12,30.61-129.39,81.16-189.37,122-61.36,41.82-113.7,101.09-135.78,172.31-26,83.93-9.69,167.11-51.52,247.85-35.55,68.63-147,189.58-147,189.58"/><path id="_395_End" data-name="395 End" class="cls-11" d="M2145,1427.09c-3.52-15.86-6.45-26.59-6.45-26.59"/><g id="_395_Tunnel" data-name="395 Tunnel"><path class="cls-11" d="M2157,1513.57c0-1.64,0-3.31-.1-5"/><path class="cls-12" d="M2156.24,1497.53c-1.55-20.29-5.37-42.25-9.08-60.14"/><path class="cls-11" d="M2146,1432c-.36-1.68-.72-3.31-1.07-4.89"/></g><path id="_395_Ramp" data-name="395 Ramp" class="cls-11" d="M2154.5,1539.5c1.81-7.26,2.52-16.17,2.45-25.93"/><path id="_50" data-name="50" class="cls-11" d="M2352.5,1328.5c36.74,11.85,80.34-4.8,116-7,45.78-2.83,93.46,15.57,137.14.4,43.86-15.23,66.64-57.69,96.43-90.32,48.9-53.57,85.8-65.21,155.91-72.78,112.55-12.16,210.47,12,319.52,14.7,102.62,2.55,288-62,288-62"/><path id="GW_Pkwy" data-name="GW Pkwy" class="cls-11" d="M2012.5,1912.5c7.48-58.92-23.5-71.91-29-126-5.44-53.53,37-133,36-176-.54-23.28-25.44-49.79-51-79-31.29-35.75-113.44-97.3-144-107-63-20-100-50-137-115-9.18-16.13-26.45-40-40-52-11-9.75-35.69-21.46-42-30-36.87-49.92-12.32-108.45-71-148-47.18-31.81-157-33-157-33"/><path id="_66" data-name="66" class="cls-11" d="M1859.5,1442.5s-33-7-47-3.5c-39.32,9.83-38.08,24.61-68,40.5-58.68,31.16-108.18,80.77-177,65-81.22-18.62-136.93-123.91-217-123-72,.82-136.76,97.09-209.34,118.81-91.32,27.34-188.12,22.68-281.05,52.92-99.63,32.41-205.23,51.27-307.28,76.16C373.2,1713.19,12.5,1792.5,12.5,1792.5"/><path id="IAD_Acces" data-name="IAD Acces" class="cls-11" d="M1354.5,1421.5s-29.37-139.93-95-176c-70.87-39-136.88-.36-208.1-9.14-48.54-6-100.1-38.91-148.9-56.86-37-13.62-61.43-36.47-104-36-28.15.31-53.56,21.33-82.71,20.93-61.26-.84-118.5-43.87-180.48-51.15-67.59-7.93-125.45.18-192-23.21C219.71,1046.63,12.5,921.5,12.5,921.5"/><path id="_200" data-name="200" class="cls-11" d="M1311.5,110.5s157.62-60.07,161-61c52.39-14.4,166.24-3.88,217.81,9.74,129.4,34.16,263.15,117.15,361.63,206.27,57.73,52.25,44.34,64.39,125.56,53,80.68-11.33,128.23-5.13,203,29,70.46,32.16,102,52.45,181.63,48.52,81.94-4,206.37,44.48,206.37,44.48"/><path id="IAD_Rd" data-name="IAD Rd" class="cls-11" d="M171.5,1117.5c10.23-23.94,53-64,79-67"/></g></g><g id="Airports-2" data-name="Airports"><g id="Baltimore"><circle class="cls-13" cx="3354.54" cy="216.25" r="64.5"/><rect class="cls-13" x="3290" y="152" width="129" height="129" rx="12" ry="12"/><path class="cls-14" d="M3390.67,236.89a3,3,0,0,0,3.74-1.85,2.83,2.83,0,0,0,.16-.95v-6.32a8.89,8.89,0,0,0-3.61-7.12l-7.82-5.77v-2.95a5.08,5.08,0,0,0-5.08-5.09h-5.83l-7-5.08.58-13.47a42,42,0,0,0-.87-11.19,10.82,10.82,0,0,0-21.2,0,42.46,42.46,0,0,0-.86,11.19l.59,13.65-6.72,5H3331a5.07,5.07,0,0,0-5.08,5.08v2.91l-7.82,5.77a8.89,8.89,0,0,0-3.61,7.12v6.32a3,3,0,0,0,2.95,3,3.09,3.09,0,0,0,1-.15l26.74-9,.85,14L3334.62,251a9.42,9.42,0,0,0-3.52,7.36v2.29a3.37,3.37,0,0,0,.51,1.88,3.33,3.33,0,0,0,3.95,1.31l19-7.12,18.93,7.07a3.41,3.41,0,0,0,1.92.17,3.33,3.33,0,0,0,2.61-3.24v-2.36a9.48,9.48,0,0,0-3.52-7.36l-11.68-9.34.83-13.87Z"/><text class="cls-15" transform="translate(3293.34 346.15)"><tspan class="cls-16">B</tspan><tspan x="41.26" y="0">WI</tspan></text><line class="cls-17" x1="3361.03" y1="87.88" x2="3314.5" y2="138.5"/><polygon points="3341.89 85.09 3394 52 3365.42 106.71 3341.89 85.09"/></g><g id="National"><line class="cls-17" x1="2030.5" y1="1726.5" x2="1897.5" y2="1858.5"/><circle class="cls-13" cx="1897.54" cy="1858.25" r="64.5"/><rect class="cls-13" x="1833" y="1794" width="129" height="129" rx="12" ry="12"/><path class="cls-14" d="M1933.81,1879a3,3,0,0,0,3.76-1.86,3,3,0,0,0,.15-.95v-6.34a8.9,8.9,0,0,0-3.62-7.15l-7.84-5.79v-3a5.1,5.1,0,0,0-5.11-5.1h-5.85l-7-5.11.58-13.52A42.31,42.31,0,0,0,1908,1819a10.86,10.86,0,0,0-21.28,0,42.31,42.31,0,0,0-.87,11.23l.59,13.71-6.74,5h-5.79a5.1,5.1,0,0,0-5.1,5.11v2.92l-7.85,5.79a8.92,8.92,0,0,0-3.62,7.15v6.34a3,3,0,0,0,3,3,3.09,3.09,0,0,0,1-.15l26.84-9,.86,14-11.42,9.19a9.52,9.52,0,0,0-3.54,7.4v2.3a3.36,3.36,0,0,0,.53,1.87,3.31,3.31,0,0,0,4,1.32l19.08-7.15,19,7.1a3.36,3.36,0,0,0,1.93.17,3.32,3.32,0,0,0,2.62-3.24v-2.37a9.52,9.52,0,0,0-3.54-7.4l-11.72-9.37.84-13.92Z"/><text class="cls-15" transform="translate(1828.09 1988.15)">DCA</text></g><g id="Dulles"><circle class="cls-13" cx="108.54" cy="1209.25" r="64.5"/><rect class="cls-13" x="44" y="1145" width="129" height="129" rx="12" ry="12"/><path class="cls-14" d="M144.81,1230a3,3,0,0,0,3.76-1.86,3,3,0,0,0,.15-.95v-6.34a8.9,8.9,0,0,0-3.62-7.15l-7.84-5.79v-3a5.1,5.1,0,0,0-5.11-5.1H126.3l-7-5.11.58-13.52A42.31,42.31,0,0,0,119,1170a10.86,10.86,0,0,0-21.28,0,42.31,42.31,0,0,0-.87,11.23l.59,13.71-6.74,5H84.92a5.1,5.1,0,0,0-5.1,5.11v2.92L72,1213.68a8.92,8.92,0,0,0-3.62,7.15v6.34a3,3,0,0,0,3,3,3.09,3.09,0,0,0,1-.15l26.84-9,.86,14-11.42,9.19a9.52,9.52,0,0,0-3.54,7.4v2.3a3.36,3.36,0,0,0,.53,1.87,3.31,3.31,0,0,0,4,1.32l19.08-7.15,19,7.1a3.36,3.36,0,0,0,1.93.17,3.32,3.32,0,0,0,2.62-3.24v-2.37a9.52,9.52,0,0,0-3.54-7.4l-11.72-9.37.84-13.92Z"/><text class="cls-15" transform="translate(51.3 1339.15)">IAD</text></g></g><g id="Labels-2" data-name="Labels"><text class="cls-18" transform="translate(1771.82 1246.15)">DC</text><text class="cls-18" transform="translate(935.82 349.15)">MD</text><text class="cls-18" transform="translate(702.82 791.15)"><tspan class="cls-19">V</tspan><tspan x="83.1" y="0">A</tspan></text></g><g id="Edge-3" data-name="Edge"><rect id="Frame" class="cls-20" x="12.5" y="12.5" width="3453" height="2553"/></g><g id="Inset-2" data-name="Inset"><rect class="cls-21" x="2119.19" y="1380.58" width="283.81" height="213.42"/><line class="cls-21" x1="2119" y1="1594" x2="780" y2="2194"/><line class="cls-21" x1="2403" y1="1594" x2="3628" y2="2194"/></g></g><g id="Inset_V" data-name="Inset V"><g class="cls-22"><g id="Background-4" data-name="Background"><rect id="Ground-2" data-name="Ground" class="cls-3" x="779" y="2202.35" width="2849.04" height="2126.47"/></g><g id="Parks-4" data-name="Parks"><polygon id="National_Mall-2" data-name="National Mall" class="cls-10" points="793 3348 1084 3348 1094 3370 1094 3435 1105 3439 1121 3452 1127 3467 1129 3473 1153 3465 1163 3437 1157 3425 1157 3348 1529 3348 1529 3097 1335 3097 1355 3019 1427 3019 1427 2885 1435 2877 1436 2870 1440 2863 1436 2847 1376 2827 1369 2827 1362 2831 1347 2844 1356 2865 1264 2953 1209 2953 1251 3102 1025 3100 994 3108 983 3117 884 3084 871 3097 788 3102 793 3348"/><polygon id="Stanton_Park" data-name="Stanton Park" class="cls-10" points="1653 2995 1654 3043 1744 3043 1744 2995 1653 2995"/><polygon id="Lincoln_Park" data-name="Lincoln Park" class="cls-10" points="2043 3195 2043 3256 2160 3256 2183 3267 2183 3195 2043 3195"/><polygon id="Grant_Park" data-name="Grant Park" class="cls-10" points="1417 3659 1546 3659 1589 3642 1590 3725 1426 3694 1417 3659"/><rect id="Marion_Park" data-name="Marion Park" class="cls-10" x="1653" y="3590" width="96" height="27"/><rect id="Seward_Square" data-name="Seward Square" class="cls-10" x="1654" y="3405" width="95" height="58"/><polygon id="Market_Park" data-name="Market Park" class="cls-10" points="1846 3559 1948 3559 1948 3515 1861 3515 1846 3507 1846 3559"/><polygon id="Potomac_Ave_Square" data-name="Potomac Ave Square" class="cls-10" points="2274 3766 2283 3769 2308 3767 2327 3761 2332 3745 2332 3735 2326 3733 2286 3733 2274 3738 2270 3751 2274 3766"/><polygon id="Folger_Park" data-name="Folger Park" class="cls-10" points="1529 3590 1589 3590 1589 3484 1530 3484 1529 3590"/><path id="Congressional_Cemetery" data-name="Congressional Cemetery" class="cls-10" d="M2506,3815V3641l58-30h135l2,86h110v50H2656l-112,91s-6.69-11.25-10-14-11-5.8-15-7C2515.85,3816.05,2506,3815,2506,3815Z"/><polygon id="Nats_Park" data-name="Nats Park" class="cls-10" points="1425 4065 1425 4212 1299 4279 1292 4264 1292 4063 1425 4065"/><path id="Anacostia_Riverfront" data-name="Anacostia Riverfront" class="cls-10" d="M1425,4329V4212s23-2,31.38-3.59c6.18-1.17,9.8-3.25,12.67-6.19,3.17-3.25,4.51-6.46,6.37-10.9,3.39-8.08,7.6-18.13,22.7-27.88,14.3-9.22,30.25-13.83,50.19-14.49l3.69-.13V4130l37-19h64v32c59.7.34,135.37,25.64,203.57,48,39.16,12.85,76.15,25,106.43,31.42,30.09,6.4,50,6.3,59-.29,23.28-16.88,46.18-35.63,66.27-52.56l-.32.41,12-37,11-15,32-22,61-49,70-50,66-37,48-22,56-26,56-18,23-10s17.42-10.45,21-16c1.81-2.8,2.91-9.67,3-13,.11-4.31-3-17-3-17l112-91h155v-50h7s13.9-17.48,18-24c5-7.95,15.5-23.94,18-33,1.67-6,2.48-18.92,1-25-1-3.92-7-10.1-8-14-7.06-26.58-2.27-82.59,0-110,.25-3,1.7-9,2-12,.7-7-.16-21.09,1-28a86.34,86.34,0,0,1,4-13c.83-2.08,3.65-5.79,4-8,1.53-9.75-3.8-29.38-6-39-2.86-12.49-15-49-15-49h-49l5-20,2-18,7-17-1-45H2687l-16-9-10-6v-89h24v-34h63v-67l-3-11,10-38,26-37,53-25,63-21,34-24,45-77,15-16V2650h-31V2480l-5-6-9-2h-47l-5-7-26-58,101-56-227-1v-24l-148-67,29-57h995v406s-38.29-1-51,0c-12.37,1-37,5-49,8-16.41,4.13-49.9,12.64-64,22-10.62,7.05-26.63,27.6-34,38-8.4,11.87-23.81,37.07-28,51-4.4,14.65-4.56,45.71-5,61-.3,10.5,1,42,1,42l22,54,10,42v25l-6,33-9,11-26,35-24,37-9,36v108l-8,20,13,25,14,31-26,55-76,125-32,115-100,258-140,115-159,56-242,107-206,121-163,89-156,2"/></g><g id="Water-4" data-name="Water"><g id="Simplified-6" data-name="Simplified"><path id="Anacostia" class="cls-4" d="M3516.46,2320.39c10.49-40.85,28.8-81.22,50.29-117.6l-53.45-.41s-5.73,44.45-26.71,45.94c-.1,0-23.07-24-25.37-25.24-14.53-8-31.64-7.66-47.71-6.58-32,2.15-72.11,17.39-95.48,41.25-17.33,17.7-34.63,50.35-48.48,71.38-16.7,25.35-8.34,47.25-19.78,72.7-11.61,25.83-40.17,34.49-60.22,52.78-26.51,24.17-30.94,45.39-36.94,79.36-10.93,61.88-28.73,108.16-23.44,172.81,5.17,63.22,8.55,126.55-16.56,186.6-22.46,53.72-78.41,95.9-88.36,153.42-12.31,71.15,50.69,111.61,55.67,174,4.31,54-32.88,118.1-51.86,167.39-11.23,29.14-24.73,53.12-42.44,79-6.82,10-20.52,19.81-22.39,32.66-1.2,8.22,10.57,31.16,10.61,31-4.48,18.22-37.09,41-48.31,58.63-18.68,29.35-33.86,61.35-49.78,92.23-31.54,61.17-53.85,131-121.06,159.85-127.51,54.77-267,76.64-390.82,142.55-58.83,31.33-114.64,68.77-166.75,110.21-55.29,44-110.77,96.7-167.74,138-55.13,40-289.7-96.76-407.11-73.76-11.17,2.19-23.85,10.93-34.65,12.36a60.9,60.9,0,0,1-27.11,3.53q-5.58-6.75-11.79-13c-15.82.53-30.16,3.69-43.83,12.51-19.93,12.86-15,24.8-26.89,37-9.36,9.59-22.42,8.49-32.29,15.92-15.13,11.39-12.87,16.22-23.11,27.69-18.62,20.84-41.85,39.61-43.62,69.55l693.77,4.12c168.82-117.46,325.47-234.94,519-310.21,47.7-18.55,95.12-37.42,142.15-57.59,45.44-19.5,106.14-34.67,142-69.87C2912,3855.1,2929.15,3805,2949,3760c22.14-50.3,50.13-92.37,86.65-133.26,71.39-79.95,162.05-149.58,212-246.79,46.9-91.36,61.27-210.2,82.33-310,9.78-46.33,26.25-94.71,29.67-142,2.07-28.57-8.34-45.89-10.91-72.56-2.7-28,6.79-53.43-1.14-81.66-14.74-52.42-30.85-79.57.09-131.91,10.45-17.66,23.28-43.24,41.62-50.9,14.25-6,53.4,11.48,64.34-6.64,13.36-22.14-15.21-22.87-20.45-33.46-13.44-27.16,4.27-43.69,22.26-69.56,14-20.09,22.59-37.09,31.19-59.65,2.51-6.58.38-17.38,3.08-25,3.71-10.52,11.16,4.26,14.72-11.07,2.93-12.58-4.65-25.55-1.29-39.34.45-1.88,15.78,2.5,18.19-2.8C3525.12,2335,3514.31,2328.77,3516.46,2320.39ZM3322,2310c-.38.38,39.45-38.63,33.18-37.18,16.88-3.91,22.87,22.82,11.17,38-2.63,3.4-48.21,32.52-51.86,34.18C3281.11,2360.13,3320,2312,3322,2310Zm-7.3,61.85c10.68-17,29.79-25.48,36-1,4.48,17.53-24.85,43.66-35.5,53.29-6,5.41-55.77,39.26-36.11-.15,5.52-11.06,23.52-9.61,30.18-20.74C3315.22,2393.33,3309.15,2380.72,3314.71,2371.87Zm-41.47-17.46c7.66-4.56,28,34.84,9.43,44.79a18.1,18.1,0,0,1-13,3.54C3265,2399.15,3269.41,2356.69,3273.24,2354.41Zm-63.07,160.79c10.23-14.72,5.56-39.36,18.07-47.62,20.66-13.64,6.89,41,6.16,42.74-4.94,12.07-32.05,65.62-50.75,63.34C3142.77,2568.67,3207.09,2519.65,3210.17,2515.2Zm-91.39,545.55c.16-13.54-2.38-120.63,25.65-75.37,6.87,11.09-2.22,46.85-.68,61.59,2.39,22.92,7.43,45.62,9.26,68.92,1.35,17.17,7.62,37.51-3.35,52.74-6.95,9.66-34.09,25.81-46.16,16.8C3094.94,3179.05,3118.58,3077.94,3118.78,3060.75ZM3458.14,2345c-18.92,43.86-37.06,89.17-59.33,131.42-48.09,91.28-132.25,152.68-116.08,263,15.07,102.91-8.93,193.91-28.72,294.55-9.59,48.79-21.33,97.29-35.54,145-12.72,42.67-13.94,87-35.1,125.79-25.37,46.47-55.21,92.72-88.12,134.1-21.67,27.25-57.2,81.61-95.48,83.7-37.12,2,24.16-44.72,24.51-45.08,18.25-18.58,30-41.92,42-65,22.7-43.59,39.26-92.18,70.54-130.87,33.15-41,61.23-83.37,68.56-138.3,7.37-55.17-8.41-96.4-15.47-146.73-13.15-93.83-24-192.52-27.79-288-1.91-48.19,12.52-97.59,60.17-119.3,24.19-11,40.31-7.47,58-29.81,14.91-18.8,19.63-45.54,26-67.75,7-24.55,11.15-48.14,27.46-68.32,13.61-16.85,37.27-24.78,50.28-41.92,23.23-30.6,16-86.15,53.14-107.38C3496.27,2240.39,3469.84,2317.88,3458.14,2345Z"/></g></g><g id="Roads-2" data-name="Roads"><g id="Tunnels-2" data-name="Tunnels"><path class="cls-23" d="M1034.79,2712.75c3.08,22.27,17.68,65.93,17.68,88.41"/><path id="_395_tunnel-2" data-name="395 tunnel" class="cls-24" d="M1033.63,2506.32q3.31,10.35,6.28,20.69c46.52,161.7,33.19,321.11,33.19,503.68,0,124.75-16.49,250.71,27.94,368.9,4.53,12.06,10.51,26.75,16.52,42.86,3.79,10.19,7.6,21,11.06,32"/></g><g id="Major-2" data-name="Major"><path class="cls-25" d="M792.56,3347.51H2848.89a73.92,73.92,0,0,0,10.61-1.77,191.17,191.17,0,0,0,20.63-7.66c9.1-4.27,26.48-14.74,34.18-21.22,8.14-6.85,20.81-24.24,28.29-31.82,9.81-9.95,29.42-30.29,41.26-37.72,12.09-7.6,53-21.22,53-21.22h578.77"/><line class="cls-25" x1="1024.77" y1="3132.98" x2="792.56" y2="3050.46"/><polyline class="cls-25" points="2274.28 3763.09 2097.43 3856.73 2046.75 3856.73"/><path class="cls-25" d="M792.56,2558.93,1336,2827.68s4.27,2.8,5.3,4.13c4.68,6,7.86,21.61,12.38,27.7,5.11,6.87,18.24,18.63,25.93,22.39,6.75,3.3,22,5.43,29.47,5.9,8,.49,23.87-2.94,31.83-2.36,2.71.2,10.61,2.36,10.61,2.36L1653,2995.06v48.33h93.13l297,152.06v60.12h116.7l496.25,261.68v43.61l-329.44,176.86"/><polyline class="cls-25" points="790.2 3962.82 2044.39 3969.89 2044.39 2649.69"/><path class="cls-25" d="M1290,2202.94v724.93l-180.35,173.28H1037s-9.17-.23-12.22,0c-5.94.44-18,1.54-23.58,3.54s-21,12.45-21,12.45"/><path class="cls-25" d="M792.56,3100h60.7s8.25.59,15.33-1.77c6.14-2,17.12-14.63,17.12-14.63"/><line class="cls-25" x1="791.38" y1="2479.95" x2="1398.43" y2="2201.76"/><line class="cls-25" x1="2362.65" y1="2649.69" x2="1542.24" y2="2201.76"/><path class="cls-25" d="M1290,2649.69H2387.41l582.94,134.79s10.09,2.55,13.51,3.12c3,.52,12.31,1.3,12.31,1.3l377.89,39.78s9.71.88,12.93,1.36c2.49.37,9.88,1.88,9.88,1.88l218.8,41.73"/><polyline class="cls-25" points="1110.23 3101.74 1529.28 3099.97 1653.04 3043.39"/><polyline class="cls-25" points="1653.04 2995.06 1743.81 2995.06 1743.81 3043.39"/><polyline class="cls-25" points="2623.16 2201.76 2396.05 2651.69 1743.81 2995.06"/><path class="cls-25" d="M1552.42,3347.51,2467.1,3836.2s5.74,2.88,7.53,4c18.83,12,53.5,40.39,71.91,53,44.67,30.69,135.92,89.34,182.7,116.7,1.86,1.08,7.55,4.13,7.55,4.13l573.58,314.13"/><path class="cls-25" d="M1325.35,4329.41s-28.75-44.42-33-61.29c-.49-1.92,0-7.92,0-7.92V3602.58s.69-7.52,0-9.89c-7.52-25.82-40.42-70.2-57.76-90.76-24.62-29.19-87.73-74.08-113.16-102.55-10.64-11.92-37.31-51.87-37.31-51.87"/><line class="cls-25" x1="1024.77" y1="3347.51" x2="1024.77" y2="3099.97"/><line class="cls-25" x1="1529.28" y1="3099.97" x2="1529.28" y2="3347.51"/><polyline class="cls-25" points="1214.72 3483.93 1598.82 3484.25 2043.21 3255.57"/><line class="cls-25" x1="1502.41" y1="3966.84" x2="1368.1" y2="3484.05"/><polyline class="cls-25" points="2183.48 3265.59 2183.48 3195.45 2043.21 3195.45"/><line class="cls-25" x1="2465.2" y1="3030.43" x2="2159.71" y2="3195.45"/><path class="cls-25" d="M1743.81,3019.23h612.47a59.4,59.4,0,0,1,6.37,0c6.06.82,17.65,5,23.58,6.48,5.27,1.31,15.81,4.12,21.22,4.72,1.13.12,4.55,0,4.55,0h328s3.42-.1,4.56,0c14.11,1.2,42,7.22,55.4,11.78,14.85,5.06,43.73,18.12,56.58,27.11,15.54,10.88,41.63,38.87,54.22,53,9.63,10.84,25.71,35.16,35.37,46,8.19,9.17,25.11,27.39,35.36,34.18,12.54,8.32,55.4,23.58,55.4,23.58"/><line class="cls-25" x1="2656.16" y1="3517.25" x2="2656.16" y2="3030.43"/><path class="cls-25" d="M2983.86,2787.6s-25.4,58.34-37.72,75.44c-7.07,9.81-24.18,27.41-34.19,34.19-11.15,7.55-37,16.28-49.51,21.21-17.77,7-56,15.39-71.9,25.94-9,6-24.44,22.22-29.47,31.82-6.57,12.56-16.5,54.23-16.5,54.23"/><path class="cls-25" d="M2043.21,3896.31s99.74,29.16,133.79,35.27c29.73,5.34,90.07,13.29,120.23,11.79s88.79-16,117.88-23.58c23.36-6.06,71.07-17.35,91.94-29.46,4.64-2.7,15.83-14.51,15.83-14.51"/><path class="cls-25" d="M1214.55,3484.25s-19.16,7.83-24.76,11.78c-8.51,6-29.46,29.47-29.46,29.47"/><path class="cls-26" d="M2520,2211.78s26,15.32,33,22.4c6,6,14.81,20.82,18.86,28.29,2.87,5.29,9.48,22.11,9.48,22.11"/><path class="cls-25" d="M3616.26,3379.93l-261.55,463.53s-9.8,18.14-14.28,23.29c-5.35,6.15-25.19,20.7-25.19,20.7L2632,4330"/><path class="cls-25" d="M2864.21,4018.81s-9.26,20-10.61,27.11c-.71,3.77-.5,11.53,0,15.32.67,5.07,5.31,19.74,5.31,19.74"/><path class="cls-25" d="M2703.9,4047.1s7.07-15.63,7.07-21.22c0-2.79-2.85-7.9-3.53-10.61-1.27-5-3.54-20.5-3.54-20.5"/><path class="cls-25" d="M3365.18,3301s-3.4-21.51-5.89-28.29-9-20.64-14.15-25.93c-7-7.2-34.77-20.18-34.77-20.18"/><line class="cls-25" x1="2183.48" y1="3255.57" x2="2159.19" y2="3255.57"/></g><g id="Minor-2" data-name="Minor"><line class="cls-26" x1="1529.28" y1="3230.52" x2="2043.21" y2="3230.52"/><line class="cls-26" x1="2656.75" y1="3226.69" x2="2183.48" y2="3226.1"/><path class="cls-26" d="M2760,3033.72s19.3,27.32,24,37.37c5.79,12.32,14.41,38.42,16.5,51.87,2.44,15.72,0,63.65,0,63.65V3242H2692.11s-10.6-1.18-18.28-7c-3.76-2.88-17.67-6.81-17.67-6.81"/><path class="cls-26" d="M2868.35,3342s-20.39-7.75-26.53-11.58c-6.57-4.1-18.28-14.41-23.58-20-5-5.37-13-16.59-15.32-23.58-3.36-10.06-2.36-42.43-2.36-42.43"/><path class="cls-26" d="M2780.93,3347.51s9.67-12.25,11.38-17.09c2.16-6.14,1-19.56,2.36-25.93.95-4.56,7.07-20,7.07-20"/><path class="cls-26" d="M2800.56,3152.09s10.13-16.89,14.14-22.06c3.71-4.77,11.57-14.19,16.51-17.68,4.2-3,13.82-7.2,18.86-8.25,4.61-1,14.15-.2,18.86,0,6.34.26,25.29,2.08,25.29,2.08"/><path class="cls-26" d="M2960.87,3187.79s6.18,20.16,7.07,27.11c.71,5.55.38,16.81,0,22.4-.47,7-3.76,28-3.76,28"/><path class="cls-26" d="M2790.75,2743s1.73,46.37.38,61.75c-1.29,14.62-7.55,43.4-10.61,57.75-4.68,22-17.58,65.09-21.22,87.23-1.84,11.24-4,45.38-4,45.38"/><line class="cls-26" x1="2121.87" y1="3195.45" x2="2384.46" y2="2787.01"/><line class="cls-26" x1="2121.87" y1="3255.57" x2="2399.99" y2="3696.52"/><line class="cls-26" x1="2384.46" y1="3792.49" x2="2384.46" y2="2649.1"/><line class="cls-26" x1="2304.3" y1="2649.1" x2="2301.95" y2="3747.7"/><line class="cls-26" x1="1653.63" y1="2262.47" x2="1653.63" y2="3966.94"/><path class="cls-26" d="M1744.4,2312l4.71,1455.76a15.91,15.91,0,0,1-1.18,5.89,74.77,74.77,0,0,1-9.43,14.14c-2.87,3.36-10.63,7.92-14.14,10.61-4.16,3.2-12.86,9.19-16.5,13-1.75,1.81-6.06,5-8.25,8.25a8.94,8.94,0,0,0-1.18,4.72v142.62"/><line class="cls-26" x1="1895.28" y1="3530.81" x2="1895.28" y2="3966.94"/><path class="cls-26" d="M2182.89,2558.34l1.18,1253H1844.59s-100.18-36.39-133.2-49.51c-14.57-5.79-42.87-19.52-57.76-24.46-15.55-5.16-63.65-15.62-63.65-15.62"/><line class="cls-26" x1="1653.63" y1="3803.66" x2="793.15" y2="3803.66"/><polyline class="cls-26" points="2376.21 3370.5 1961.29 3515.48 1861.09 3515.48"/><line class="cls-26" x1="1528.69" y1="3348.1" x2="1529.86" y2="3483.66"/><line class="cls-26" x1="1425.46" y1="3803.66" x2="1425.46" y2="4064.78"/><path class="cls-26" d="M1290.58,2650.28h-224s-14.33,2-18.86,3.53c-7.23,2.5-27.12,14.15-27.12,14.15v433.78"/><polyline class="cls-26" points="2333.77 3101.74 1529.87 3100.56 1529.87 2649.1"/><path class="cls-26" d="M2410.39,2624.35l16.77,5.33s6.77,2,9.16,1.74c3-.27,10.79-4.5,10.79-4.5l524.37-273.69"/><path class="cls-26" d="M2799.38,3211.36H2690.94s-10.61,1.18-18.29,7c-3.76,2.87-17.67,6.8-17.67,6.8"/><line class="cls-26" x1="1895.28" y1="3863.82" x2="1717.24" y2="3803.66"/><path class="cls-26" d="M1168.9,3434.57s-16.24,26.8-16.24,34.94"/><path class="cls-26" d="M1129.09,3476.58c0-6.92-18.86-42.43-34.77-42"/><line class="cls-26" x1="1134.98" y1="3491.91" x2="1094.32" y2="3491.32"/><line class="cls-26" x1="823.79" y1="2754.37" x2="1020.64" y2="2754.37"/><path class="cls-26" d="M793.15,2668H1006.5s13.12,2.54,16.7,5a29,29,0,0,1,9.23,11.46c2.34,6.08,1.47,21.84,2.36,28.29"/><path class="cls-26" d="M925.17,4209.77V3968.12s-6.34-13.88-7.08-18.86c-3.92-26.58,7.08-107.26,7.08-107.26V3588.57"/><polyline class="cls-26" points="924.58 3099.97 924.58 3347.51 924.58 3586.8"/><line class="cls-26" x1="2594.44" y1="2258.66" x2="2543.61" y2="2226.79"/><polyline class="cls-26" points="2569.52 2685.64 2581.31 2650.28 2581.36 2292.49"/><circle class="cls-26" cx="3341.02" cy="3870.88" r="30.65"/><line class="cls-26" x1="3365.28" y1="3889.59" x2="3616.26" y2="4018.81"/><line class="cls-26" x1="3340.43" y1="3900.93" x2="3381.68" y2="4327.64"/><path class="cls-26" d="M2984.44,4101.32s-15.93.52-21.21,0c-4.49-.44-13.2-3.09-17.68-3.53a122.42,122.42,0,0,0-18.86,0c-4.2.44-13.36,3.08-16.51,5.89-2.77,2.49-3.76,8.18-4.71,11.79a100.63,100.63,0,0,0-2.36,11.78c-.26,2.64.13,8,0,10.61a89.17,89.17,0,0,1-1.18,11.79,100.43,100.43,0,0,1-3.53,9.43"/><path class="cls-26" d="M2330.19,3734.3c3.11,3.21,1.6,13.72,0,17.9-1.44,3.75-7.33,9.83-10.74,11.93-2.9,1.79-9.76,3.13-13.13,3.58-7.39,1-23.2,3.42-29.84,0-2.28-1.17-5.18-5.91-6-8.35a22.29,22.29,0,0,1,0-9.55c1.24-4.38,5.66-13.13,9.54-15.51,3.06-1.88,10.74-1,14.32-1.19,6.56-.28,19.71-.41,26.26,0C2323,3733.26,2328.51,3732.58,2330.19,3734.3Z"/></g><g id="Local-2" data-name="Local"><polyline class="cls-27" points="2099.79 3195.45 2099.79 2505.88 2271.89 2201.76"/><polyline class="cls-27" points="2748.11 3030.43 2748.11 3103.51 2334.36 3102.33"/><polyline class="cls-27" points="2704.49 3102.33 2704.49 2860.69 2718.64 2804.11 2791.72 2820.61"/><polyline class="cls-27" points="2917.84 2775.82 2894.27 2861.86 2894.27 2876.01 2447.52 2876.01"/><line class="cls-27" x1="2909.59" y1="2892.51" x2="2894.27" y2="2876.01"/><line class="cls-27" x1="2876.59" y1="2761.67" x2="2842.4" y2="2925.52"/><line class="cls-27" x1="2837.69" y1="2753.42" x2="2799.97" y2="2939.66"/><line class="cls-27" x1="2774.04" y1="2952.63" x2="792.56" y2="2952.63"/><polyline class="cls-27" points="2660.88 3025.71 2660.88 2876.01 2696.24 2721.59"/><polyline class="cls-27" points="2718.64 2804.11 2385.05 2721.59 1529.28 2722.77"/><line class="cls-27" x1="2583.08" y1="3025.71" x2="2583.08" y2="2876.01"/><polyline class="cls-27" points="2644.38 2708.63 2610.19 2857.15 2610.19 2873.65"/><polyline class="cls-27" points="2568.93 2692.12 2534.75 2843.01 2510.64 2876.01 2506.46 3747.11 2441.63 3747.11 2400.37 3691.71"/><line class="cls-27" x1="2505.28" y1="3697.6" x2="1589.39" y2="3697.6"/><line class="cls-27" x1="2580.72" y1="3600.94" x2="2583.08" y2="3226.1"/><line class="cls-27" x1="2654.98" y1="3161.27" x2="2221.2" y2="3161.27"/><polyline class="cls-27" points="2472.28 2669.73 2447.52 2798.21 2441.63 3747.11 2484.65 3822.55"/><polyline class="cls-27" points="2383.87 2844.18 2534.75 2844.18 2610.19 2857.15"/><line class="cls-27" x1="2383.87" y1="2876.01" x2="1529.28" y2="2876.01"/><polyline class="cls-27" points="2385.05 2808.82 1480.95 2806.46 1473.87 2812.36 1470.34 2832.4 1462.09 2851.26 1443.23 2860.69 1436.15 2870.12 1432.62 2885.44"/><polyline class="cls-27" points="1440.22 2864.69 1438.51 2854.79 1436.15 2846.54 1374.86 2826.5 1365.43 2828.86 1348.93 2839.47"/><polyline class="cls-27" points="1335.96 2826.5 1370.93 2721.59 1394.9 2649.69 1426.72 2564.82 1426.72 2201.76"/><line class="cls-27" x1="1371.32" y1="2721.59" x2="1146.18" y2="2721.59"/><line class="cls-27" x1="997.66" y1="2202.94" x2="1251.09" y2="3101.15"/><polyline class="cls-27" points="1425.89 3432 1425.55 3658.7 1545.78 3658.7 1653.04 3617.45 2039.67 3616.27 2060.89 3609.19 2565 3611.55"/><line class="cls-27" x1="1426.72" y1="2885.44" x2="1426.02" y2="3348"/><path class="cls-27" d="M2099.79,3255.57l3.54,601.16h348.91s7.56-2.85,9.43-4.71c2.33-2.33,4.07-9.05,5.89-11.79,3-4.53,9.73-13.34,14.15-16.5,2.58-1.85,8.78-3.71,11.78-4.72,3.19-1.07,13-3.54,13-3.54v-68.36"/><line class="cls-27" x1="2183.48" y1="3810.76" x2="2184.07" y2="3856.73"/><line class="cls-27" x1="2301.36" y1="3747.11" x2="2301.36" y2="3856.73"/><line class="cls-27" x1="2383.87" y1="3791.9" x2="2384.46" y2="3856.73"/><polyline class="cls-27" points="2221.2 3791.9 2240.06 3823.73 2383.87 3823.73"/><line class="cls-27" x1="2654.98" y1="3285.04" x2="2221.2" y2="3285.04"/><line class="cls-27" x1="1983.09" y1="3286.22" x2="1589.39" y2="3286.22"/><line class="cls-27" x1="1983.09" y1="3161.27" x2="1529.28" y2="3161.27"/><line class="cls-27" x1="2044.39" y1="2649.69" x2="2044.39" y2="2476.41"/><line class="cls-27" x1="1997.24" y1="3810.76" x2="1994.88" y2="2449.3"/><line class="cls-27" x1="1946.55" y1="3969.89" x2="1948.22" y2="2722.19"/><line class="cls-27" x1="1895.87" y1="3514.89" x2="1898.22" y2="2396.26"/><line class="cls-27" x1="1846.36" y1="3967.53" x2="1846.36" y2="2367.97"/><line class="cls-27" x1="1697.84" y1="3819.01" x2="1698.42" y2="3617.31"/><line class="cls-27" x1="1697.84" y1="3590.33" x2="1697.84" y2="3463.03"/><line class="cls-27" x1="1697.84" y1="3405.27" x2="1697.84" y2="3043.39"/><line class="cls-27" x1="1697.84" y1="2995.06" x2="1697.84" y2="2286.63"/><line class="cls-27" x1="1660.12" y1="3405.27" x2="1743.81" y2="3405.27"/><line class="cls-27" x1="1660.12" y1="3463.03" x2="1749.7" y2="3463.03"/><polyline class="cls-27" points="1396.08 3586.8 1511.59 3531.4 1846.36 3531.4"/><line class="cls-27" x1="1529.19" y1="3658.7" x2="1530.45" y2="3491.32"/><line class="cls-27" x1="1425.55" y1="3434.4" x2="1653.04" y2="3434.74"/><line class="cls-27" x1="1749.7" y1="3434.74" x2="2183.48" y2="3434.74"/><line class="cls-27" x1="2099.79" y1="3476.04" x2="2654.98" y2="3476.04"/><polyline class="cls-27" points="1697.84 3856.73 1223.98 3856.73 1223.85 3907.39 1222.8 4318.8 1425.55 4212.71 1425.55 4064.19"/><line class="cls-27" x1="1946.55" y1="3901.52" x2="1222.8" y2="3901.52"/><line class="cls-27" x1="1222.8" y1="3856.73" x2="1222.8" y2="3803.69"/><polyline class="cls-27" points="1653.04 3966.36 1653.04 4111.34 1590.57 4111.34 1589.39 3967.53 1590.57 2227.7"/><polyline class="cls-27" points="1650.69 4051.22 1525.74 4051.22 1502.16 3966.36"/><polyline class="cls-27" points="1523.38 4048.87 1511.59 4064.19 1136.75 4061.83 1089.6 4206.82 1089.6 4318.8"/><line class="cls-26" x1="1359.54" y1="3803.69" x2="1359.54" y2="4063.24"/><line class="cls-27" x1="1895.87" y1="3863.8" x2="1946.55" y2="3886.2"/><polyline class="cls-27" points="2043.21 3919.2 1988.99 3919.2 1895.87 3967.53"/><line class="cls-27" x1="1994.88" y1="3969.89" x2="1994.88" y2="3919.21"/><polyline class="cls-27" points="1708.45 3810.76 1546.96 3738.86 1530.45 3738.86 1438.51 3738.86"/><line class="cls-27" x1="1529.28" y1="3966.36" x2="1530.45" y2="3738.86"/><line class="cls-27" x1="1552.85" y1="3966.36" x2="1552.85" y2="3803.69"/><line class="cls-27" x1="1426.52" y1="3019.13" x2="1653.04" y2="3018.64"/><line class="cls-27" x1="1289.99" y1="2927.87" x2="1358.36" y2="2864.22"/><line class="cls-27" x1="1371.32" y1="2952.63" x2="1386.65" y2="2885.44"/><polyline class="cls-27" points="1530.45 2649.69 1529.28 2429.26 1546.96 2350.29"/><line class="cls-27" x1="1809.82" y1="2350.29" x2="792.56" y2="2352.64"/><line class="cls-27" x1="1947.13" y1="3540.06" x2="2656.16" y2="3539.65"/><polyline class="cls-27" points="1289.99 3484.25 1289.99 3590.33 1743.81 3590.33 1846.36 3558.18 1948.22 3558.98"/><circle class="cls-27" cx="1149.72" cy="3272.07" r="12.97"/><circle class="cls-27" cx="1149.72" cy="3180.13" r="12.97"/><line class="cls-27" x1="1156.79" y1="3434.74" x2="1156.79" y2="3282.93"/><line class="cls-27" x1="1142.53" y1="3261.28" x2="1142.53" y2="3190.92"/><path class="cls-27" d="M1136.75,3274.07l-143.81,49.87s-8.27,4.9-10.61,7.07c-3.85,3.56-13,16.5-13,16.5"/><line class="cls-27" x1="1024.77" y1="3132.98" x2="1136.75" y2="3176.02"/><line class="cls-27" x1="1157.14" y1="3169.5" x2="1157.14" y2="2768.17"/><line class="cls-27" x1="1157.14" y1="2721.59" x2="1157.14" y2="2202.94"/><line class="cls-27" x1="1024.77" y1="3347.51" x2="1024.77" y2="3586.8"/><polyline class="cls-27" points="1094.32 3369.91 1094.32 3586.8 923.99 3586.8 793.73 3586.8"/><line class="cls-27" x1="822.02" y1="3347.51" x2="822.02" y2="3586.8"/><line class="cls-27" x1="1094.32" y1="3434.4" x2="822.02" y2="3434.57"/><line class="cls-27" x1="1094.32" y1="3484.25" x2="924.58" y2="3484.25"/><line class="cls-27" x1="1094.32" y1="3566.79" x2="924.58" y2="3507.37"/><line class="cls-27" x1="924.58" y1="3524.08" x2="792.56" y2="3478.35"/><line class="cls-27" x1="1024.77" y1="3282.68" x2="792.56" y2="3282.68"/><line class="cls-27" x1="1024.77" y1="3180.13" x2="790.2" y2="3180.13"/><line class="cls-27" x1="790.2" y1="2806.46" x2="1020.64" y2="2806.46"/><polyline class="cls-27" points="792.56 2873.65 1289.99 2874.83 1348.93 2846.54"/><line class="cls-27" x1="1155.61" y1="2806.46" x2="1289.99" y2="2806.46"/><polyline class="cls-27" points="1875.13 2525.92 1979.56 2441.05 2179.95 2202.94"/><polyline class="cls-27" points="1530.13 2589.25 2251.85 2589.25 2357.94 2400.97"/><line class="cls-27" x1="1106.08" y1="2587.22" x2="1157.14" y2="2587.21"/><line class="cls-27" x1="865.64" y1="2587.21" x2="1027.13" y2="2587.22"/><line class="cls-27" x1="791.38" y1="2614.33" x2="904.54" y2="2614.33"/><line class="cls-27" x1="791.38" y1="2525.92" x2="2124.55" y2="2525.92"/><line class="cls-27" x1="865.64" y1="2428.85" x2="792.56" y2="2429.26"/><line class="cls-27" x1="979.98" y1="2457.55" x2="865.64" y2="2457.55"/><line class="cls-27" x1="1159.74" y1="2457.55" x2="1069.5" y2="2457.55"/><line class="cls-27" x1="1289.99" y1="2457.55" x2="1994.88" y2="2457.55"/><polyline class="cls-27" points="790.2 2261.88 1529.28 2263.06 1529.28 2201.76"/><line class="cls-27" x1="980.2" y1="2952.63" x2="979.98" y2="2261.88"/><polyline class="cls-27" points="792.56 2989.17 865.63 2952.63 865.64 2202.94"/><line class="cls-27" x1="1020.64" y1="3014.51" x2="823.79" y2="3015.69"/><line class="cls-27" x1="823.79" y1="3100.56" x2="824.97" y2="2201.17"/><path class="cls-27" d="M1205.12,3753h-70.73l-70.72,279.37s-7.21,22.78-8.25,30.64c-.81,6.14-.9,18.63,0,24.76s3.17,18.81,7.07,23.57c3.17,3.88,17.68,9.43,17.68,9.43l34.48,9"/><line class="cls-27" x1="1152.07" y1="3697.6" x2="793.73" y2="3697.6"/><line class="cls-27" x1="1292.35" y1="4206.82" x2="926.93" y2="4206.82"/><polyline class="cls-27" points="1080.17 4154.95 1028.31 4154.95 1028.31 4206.82"/><line class="cls-27" x1="997.66" y1="4154.96" x2="926.93" y2="4154.96"/><line class="cls-27" x1="876.25" y1="4130.2" x2="921.04" y2="4130.2"/><line class="cls-27" x1="871.53" y1="4063.01" x2="994.12" y2="4063.01"/><line class="cls-27" x1="1160.33" y1="4318.8" x2="1155.61" y2="3966.36"/><line class="cls-27" x1="1089.6" y1="4279.26" x2="1258.16" y2="4278.72"/><line class="cls-27" x1="1106.47" y1="4154.96" x2="1292.35" y2="4154.96"/><line class="cls-27" x1="1024.77" y1="3966.36" x2="1024.77" y2="3697.6"/><line class="cls-27" x1="1106.47" y1="3856.73" x2="981.16" y2="3856.73"/><line class="cls-27" x1="1024.77" y1="3901.52" x2="1096.79" y2="3901.52"/><path class="cls-27" d="M822,3697.6v292.33a15.84,15.84,0,0,1-1.17,5.89,23.72,23.72,0,0,1-4.72,5.9,4.42,4.42,0,0,1-2.85,1.18H796.09"/><line class="cls-27" x1="2017.26" y1="2396.26" x2="2409.8" y2="2615.51"/><line class="cls-27" x1="2053.96" y1="2352.64" x2="2497.03" y2="2598.41"/><path class="cls-27" d="M2092,2307.42l373.18,206.71s12.21,5.78,16.51,7.08c3.15.95,13,2.35,13,2.35h148.82"/><path class="cls-27" d="M2134.36,2257.11l141.07,79s12.28,3.37,16.5,3.54c4.45.17,13.62-.52,17.68-2.36,2.85-1.29,7.42-5.85,9.43-8.25a38.16,38.16,0,0,0,3.54-5.89,50.6,50.6,0,0,0,3.53-9.43c.69-3.77.8-11.58,0-15.33-.6-2.84-3.21-8.13-4.71-10.61a38.53,38.53,0,0,0-16.51-16.5l-113.16-66"/><line class="cls-27" x1="2157.51" y1="2229.6" x2="2441.63" y2="2386.83"/><line class="cls-27" x1="2326.11" y1="2380.93" x2="2418.05" y2="2433.98"/><line class="cls-27" x1="2225.92" y1="2567.18" x2="2429.84" y2="2198.23"/><line class="cls-27" x1="2317.86" y1="2626.11" x2="2527.68" y2="2219.44"/><line class="cls-27" x1="2286.03" y1="2608.43" x2="2389.59" y2="2417.55"/><line class="cls-27" x1="2430.68" y1="2407.46" x2="2501.75" y2="2442.23"/><line class="cls-27" x1="2427.13" y1="2493.05" x2="2559.5" y2="2244.2"/><line class="cls-27" x1="2372.08" y1="2302.73" x2="2460.48" y2="2349.7"/><line class="cls-27" x1="2449.88" y1="2205.3" x2="2389.59" y2="2312.03"/><line class="cls-27" x1="2286.03" y1="2205.3" x2="2407.99" y2="2279.46"/><line class="cls-25" x1="2367.37" y1="2211.19" x2="2428.93" y2="2242.38"/><line class="cls-27" x1="2550.69" y1="2349.7" x2="2969.12" y2="2351.47"/><line class="cls-27" x1="2704.21" y1="2350.58" x2="2704.21" y2="2722.94"/><line class="cls-27" x1="2789.98" y1="2350.71" x2="2790.54" y2="2735.74"/><line class="cls-27" x1="2581.36" y1="2615.51" x2="2889.56" y2="2454.02"/><line class="cls-27" x1="2501.75" y1="2454.02" x2="2704.21" y2="2454.02"/><line class="cls-27" x1="2529.74" y1="2386.83" x2="2704.21" y2="2386.83"/><polyline class="cls-27" points="2735.45 2349.7 2704.21 2417.55 2514.23 2417.55"/><polyline class="cls-27" points="2581.9 2649.69 2863.62 2649.69 2863.62 2721.59 2789.99 2721.59"/><path class="cls-27" d="M2867.59,2407.46l26.68,58.34s3.08,5,4.72,5.9c1.8,1,8.25,1.18,8.25,1.18h43.61s5.81,1,7.07,2.35c1.65,1.79,2.36,9.43,2.36,9.43l-1.18,254.61s-.63,9.76-1.18,13c-1.21,7.05-7,27.74-7,27.74"/><line class="cls-27" x1="2748.1" y1="2528.13" x2="2748.1" y2="2649.69"/><line class="cls-27" x1="2648.96" y1="2580.08" x2="2649.09" y2="2714.52"/><path class="cls-27" d="M3387,3018.64l231-3.54-202.74,188.6s-13,7.08-25.93,8.25c-10.86,1-43.62,0-43.62,0V3110.58s.36-13.33,1.18-17.68c1.27-6.68,5.32-19.79,8.25-25.93,6.23-13.06,23.63-36.41,31.83-48.33,6.58-9.57,22.93-26.89,27.11-37.72,4.7-12.18,7-38.87,5.89-51.87-1.35-15.6-12.59-45.3-17.68-60.11-3.39-9.89-15.32-38.9-15.32-38.9"/><line class="cls-27" x1="3510.19" y1="2853.53" x2="3510.19" y2="3115.42"/><line class="cls-27" x1="3346.01" y1="3103.33" x2="3510.19" y2="3103.33"/><path class="cls-27" d="M3428.1,3018s1,11.19.14,14.77c-1,4.23-5.8,11.73-8.25,15.33-2.82,4.14-9.84,11.4-13,15.32-2.76,3.46-8.37,10.33-10.61,14.15-1.47,2.5-4.11,7.77-4.72,10.61-.78,3.7,0,15.14,0,15.14V3212"/><line class="cls-27" x1="3419.59" y1="2951.5" x2="3615.67" y2="2951.45"/><line class="cls-27" x1="3410.56" y1="3063.43" x2="3566.75" y2="3062.8"/><line class="cls-27" x1="3584.61" y1="2951.45" x2="3584.61" y2="3015.61"/><line class="cls-27" x1="3510.19" y1="2905.41" x2="3615.67" y2="2920.8"/><line class="cls-27" x1="3391.7" y1="3167.33" x2="3454.38" y2="3167.33"/><polyline class="cls-27" points="3615.67 3285.04 3510.76 3283.86 3510.19 3567.91"/><line class="cls-27" x1="3615.67" y1="3347.51" x2="3461.25" y2="3347.51"/><line class="cls-27" x1="3609.94" y1="3391.12" x2="3444.75" y2="3391.12"/><polyline class="cls-27" points="3585.02 3435.92 3410.56 3435.92 3410.56 3656.34 3566.16 3656.34 3615.67 3600.94"/><polyline class="cls-27" points="3535.51 3523.14 3338.66 3523.14 3338.66 3641.02"/><line class="cls-27" x1="3313.91" y1="3567.94" x2="3609.77" y2="3567.94"/><line class="cls-27" x1="3289.15" y1="3611.55" x2="3486" y2="3611.55"/><line class="cls-27" x1="3558.76" y1="3567.91" x2="3615.67" y2="3494.85"/><line class="cls-27" x1="3507.22" y1="3480.71" x2="3372.84" y2="3480.71"/><polyline class="cls-27" points="3566.75 3391.12 3566.16 3231.99 3615.67 3178.95"/><path class="cls-27" d="M3371.66,3862.62s16.21-5.55,21.22-8.25c5.4-2.9,15.62-9.89,20-14.14s11.32-15.17,15.32-20c4.25-5.16,12.91-15.37,17.69-20,5.23-5.11,16.06-15.19,22.39-18.86,6-3.45,19.33-7.44,25.93-9.43,7.26-2.18,21.9-6.83,29.47-7.07,6.88-.22,20.62,2.46,27.11,4.71,7.6,2.64,21.78,10.61,28.29,15.33,5.91,4.28,16.48,14.49,21.22,20,4.41,5.15,15.33,22.39,15.33,22.39"/><line class="cls-27" x1="3403.49" y1="3756.54" x2="3206.64" y2="3756.54"/><path class="cls-27" d="M3194.85,3904.47V3800.15l109.65,60.35-134.4-.23-14.15-9.43s-12.2,16.93-16.5,22.39c-8.79,11.19-27,33-36.54,43.62-7.95,8.83-24.68,25.71-33,34.18-10.51,10.7-31.35,32.32-42.43,42.44-8.5,7.76-25.77,23.11-35.36,29.47-9.12,6-28.68,16.15-38.9,20-11.09,4.22-34.35,9.43-46,11.79s-35.35,5.43-47.15,7.07c-14.16,2-42.69,4.89-56.58,8.26-10.6,2.56-30.83,11-41.26,14.14-14.29,4.34-43.66,10.39-57.76,15.32-12.45,4.36-36.44,15.49-48.33,21.22-11.4,5.5-33.8,17.3-44.79,23.58-10.23,5.84-30.1,18.49-40.08,24.75-13.91,8.74-41.41,26.75-55.4,35.36-17.21,10.6-69.55,41.26-69.55,41.26v82.51"/><line class="cls-27" x1="3338.66" y1="3840.23" x2="3338.66" y2="3756.54"/><polyline class="cls-27" points="3301.6 3756.54 3302.12 3829.62 3289.15 3849.23"/><path class="cls-27" d="M3397.6,3906.24s-9.84,36.9-15.33,48.33c-4.13,8.62-16.19,23.69-21.21,31.82-3.75,6.07-8.81,20-14.15,24.76-7.42,6.56-27.39,11.53-36.54,15.32-14.41,6-42.71,19.5-57.76,23.58-10.06,2.72-30.84,5.69-41.26,5.89-14.21.27-42.44-4.3-56.58-5.89-12.09-1.37-36.21-4.68-48.32-5.9-7.36-.74-29.47-2.35-29.47-2.35"/><line class="cls-27" x1="3293.7" y1="4033.73" x2="3102.91" y2="3916.85"/><line class="cls-27" x1="2997.82" y1="4018.81" x2="3054.58" y2="4055.94"/><line class="cls-27" x1="3046.11" y1="3975.29" x2="3117.05" y2="4018.22"/><line class="cls-27" x1="3069.9" y1="3951.03" x2="3252.61" y2="4050.05"/><line class="cls-27" x1="2937.01" y1="4049.9" x2="3001.54" y2="4090.12"/><path class="cls-27" d="M3264.5,3756.54l-.1,145s6.42,12,9.43,15.33c3.23,3.59,11.39,9,15.32,11.79,5.18,3.71,15.53,11.26,21.22,14.14,3.08,1.56,9.57,4.12,13,4.72,5.22.92,21.21,0,21.21,0"/><polyline class="cls-27" points="3231.34 3756.54 3231.39 3793.08 3219.17 3812.81"/><path class="cls-27" d="M3130.79,3884s10.63,7.49,14.55,9.29c6.44,3,20.2,6.73,27.12,8.25,8.42,1.85,25.79,2.71,34.18,4.72,7.88,1.89,23.77,6.31,30.65,10.61,7.06,4.42,17.68,17.68,23.57,23.57,7.07,7.08,20.95,21.5,28.29,28.29,6,5.54,17.41,17.7,24.76,21.22,4.32,2.07,14.08,3.09,18.86,3.54,4.1.38,16.5,0,16.5,0"/><line class="cls-27" x1="3198.39" y1="4327.05" x2="3198.3" y2="3975.29"/><line class="cls-27" x1="3124.13" y1="4046.23" x2="3124.13" y2="4225.68"/><line class="cls-27" x1="3064.01" y1="4050.05" x2="3064.01" y2="4327.05"/><line class="cls-27" x1="3016.86" y1="4080.69" x2="3016.86" y2="4327.05"/><line class="cls-27" x1="3108.8" y1="4217.43" x2="3108.8" y2="4327.05"/><line class="cls-27" x1="3036.9" y1="4070.09" x2="3356.34" y2="4070.09"/><line class="cls-27" x1="3124.13" y1="4109.42" x2="3361.06" y2="4109.42"/><path class="cls-27" d="M3016.86,4159.72l209.82-.05s13.28-.44,17.68,0c7.48.74,22.1,4.42,29.47,5.89,5.89,1.18,17.84,2.91,23.57,4.72,7.68,2.42,22.15,9.63,29.47,13,10.68,4.86,32.24,14.24,42.44,20,7.39,4.2,21.71,13.48,28.29,18.86a215.22,215.22,0,0,1,22.39,22.4c6.07,7.4,16.8,23.35,21.22,31.83,3.37,6.45,10.61,27.11,10.61,27.11l5.89,18.86"/><path class="cls-27" d="M3124.13,4208.62H3229s17.68.25,23.57.56c7.38.38,22.19,1.07,29.47,2.36a153,153,0,0,1,21.22,5.89c6.15,2.37,17.71,8.78,23.57,11.79,5.63,2.89,16.8,8.84,22.4,11.78,6.18,3.25,24.75,13,24.75,13"/><line class="cls-27" x1="3379.92" y1="4303.48" x2="3198.39" y2="4208.62"/><polyline class="cls-27" points="3374.02 3967.78 3449.46 3967.53 3449.46 4065.37 3615.67 4065.37"/><line class="cls-27" x1="3507.22" y1="4007.61" x2="3350.74" y2="4007.61"/><path class="cls-27" d="M3507.22,3962.82V4076s1.11,9.05,2.36,11.79c1.4,3.05,5.83,8.28,8.25,10.61a26.63,26.63,0,0,0,8.25,4.71c2.81.9,11.79,1.18,11.79,1.18H3618"/><path class="cls-27" d="M3356.34,4079.52l163.85,114.33s3.08,7,3.53,9.43c.63,3.48,0,10.61,0,14.15,0,3.83-.61,11.54,0,15.32a59.76,59.76,0,0,0,4.72,14.15c1.8,3.31,7.17,8.76,9.43,11.79,2.15,2.87,7.17,8.35,8.25,11.78,1.77,5.62-.72,17.73,0,23.58.3,2.41,2.36,9.43,2.36,9.43"/><path class="cls-27" d="M3614.49,4297.58s-19.46.73-25.94,1.18c-6.2.44-18.57,1.65-24.75,2.36-4.43.51-13.28,1.65-17.68,2.36-4.74.76-14.35,1.91-18.86,3.53a46.1,46.1,0,0,0-10.61,5.9,50.57,50.57,0,0,0-4.71,5.89"/><path class="cls-27" d="M3361.06,4138.45s29.54,18.92,38.89,25.94c7.7,5.77,22.14,18.52,29.47,24.75,8.29,7,25.55,20.39,33,28.29,5.34,5.66,14.64,18.21,18.86,24.75,4.71,7.32,12.58,22.88,16.5,30.65,5,9.89,18.86,40.08,18.86,40.08"/><line class="cls-27" x1="3422.28" y1="4183" x2="3520.19" y2="4193.85"/><line class="cls-27" x1="2507.11" y1="4209.79" x2="2507.64" y2="4323.52"/><line class="cls-27" x1="2581.39" y1="4162.74" x2="2581.9" y2="4323.52"/><line class="cls-27" x1="2632" y1="4133.12" x2="2844.76" y2="4323.52"/><line class="cls-27" x1="2656.16" y1="4323.52" x2="2656.16" y2="4154.74"/><line class="cls-27" x1="2581.9" y1="4206.43" x2="2713.92" y2="4206.43"/><line class="cls-27" x1="2446.34" y1="4279.94" x2="3198.39" y2="4278.55"/><line class="cls-27" x1="2754.09" y1="4086.5" x2="2754" y2="4323.52"/><polyline class="cls-27" points="2887.2 4238.65 2887.2 4187.96 2877.77 4167.92 2703.31 4055.94 2671.49 3997"/><polyline class="cls-27" points="2754 4177.3 2822.37 4133.12 2849.48 4080.69"/><line class="cls-27" x1="2831.8" y1="4200.93" x2="2831.8" y2="4322.34"/><line class="cls-27" x1="2930.81" y1="4136.1" x2="2930.81" y2="4319.98"/><line class="cls-27" x1="2831.8" y1="4236.04" x2="3016.86" y2="4236.04"/><path class="cls-27" d="M2090.36,4328.23s36.72-31.46,49.51-41.25c18.3-14,56.36-40.11,75.44-53,21.85-14.81,66.07-43.68,88.41-57.76,14.87-9.38,45-27.61,60.11-36.54,22.52-13.27,67.56-39.83,90.77-51.86,17.9-9.29,54.58-26.14,73.08-34.19,30.81-13.4,93.5-37.68,125-49.5,21.37-8,64.63-22.71,86-30.65,16.89-6.27,50.33-19.64,67.19-25.93,10.41-3.89,31.43-11.34,41.26-16.51,5.64-3,16.43-9.93,21.22-14.14,8-7,21.07-24.2,27.11-33,7.46-10.88,19.32-34.55,25.93-46,5.5-9.49,15.46-29.22,22.4-37.72,2.77-3.39,9-9.86,13-11.79,4.57-2.24,20-3.53,20-3.53s20.76,3.1,27.11,5.89c8.91,3.91,24.48,16,31.83,22.4,5.2,4.5,15.62,14,18.86,20,1.85,3.46,3.89,11.4,3.54,15.32-.4,4.47-4.51,12.82-7.08,16.5-8.58,12.31-31.31,32.65-43.61,41.26-7,4.91-22.65,12.27-30.65,15.32-6.27,2.4-19.36,5.68-25.93,7.08-11.37,2.41-34.35,6.68-46,7.07-6.8.22-20.32-1.93-27.11-2.36-4.12-.26-12.38,0-16.51,0H2842.4"/><path class="cls-27" d="M2880.13,3933.35a104.23,104.23,0,0,1-8.26-7.07,12.28,12.28,0,0,1-2.35-3.54c-.52-2,.64-8.11.64-8.11"/></g><g id="Highways-4" data-name="Highways"><path id="_295-2" data-name="295" class="cls-28" d="M2221.2,4328.23c148.08-75.74,285-166.79,431.09-244.78,163.23-87.15,322.54-70.55,446.92-215.84,123.4-144.14,113.12-312.42,194.54-471.21,52.57-102.52,210.52-220.4,346.08-354.78"/><path id="_695" data-name="695" class="cls-28" d="M792.56,3632.77c150.58,0,311.71-19.63,456.22,26.19,146.22,46.37,294.47,58,437.23,112.66,103.27,39.51,350.32,59.2,385.49,167,23.86,73.15-6.29,146.7,28.21,223.57,37.81,84.24,65.77,122.42,152.9,149.95"/><path id="_695_Ramp" data-name="695 Ramp" class="cls-28" d="M2184.66,4329.41s-7.47-48.25-16.5-61.29"/><path id="_395_Ramp_W" data-name="395 Ramp W" class="cls-28" d="M1128.62,3473.42c20.27,64.66,28.5,138.38-48,159.35"/><path id="_395_End-2" data-name="395 End" class="cls-28" d="M994,2398c20,43.61,28,70.84,39.63,107.32"/><path id="_395_Ramp_E" data-name="395 Ramp E" class="cls-28" d="M1178.45,3638.68c-20.07-26.71-30.34-60.15-35.81-93.14"/></g></g><g id="Places-2" data-name="Places"><g id="Eastern_Market" data-name="Eastern Market"><line class="cls-17" x1="1833.5" y1="3402.5" x2="1785.5" y2="3354.5"/><circle class="cls-29" cx="1755.11" cy="3324.35" r="50"/><rect class="cls-29" x="1705.11" y="3274.35" width="100" height="100" rx="12" ry="12"/><path class="cls-14" d="M1744.24,3293.82a8.54,8.54,0,1,0-8.53,8.54A8.54,8.54,0,0,0,1744.24,3293.82Z"/><path class="cls-14" d="M1761.91,3293.82a8.54,8.54,0,1,0,8.53-8.53h0A8.55,8.55,0,0,0,1761.91,3293.82Z"/><path class="cls-14" d="M1754.43,3343.16l.08.05a33.72,33.72,0,0,0,9.35,4l1.61,12.86a3.72,3.72,0,0,0,3.7,3.31h2.55a3.73,3.73,0,0,0,3.7-3.3l1.55-12.84a33.26,33.26,0,0,0,9.46-4.08,3.76,3.76,0,0,0,1.6-4.41l-8.61-26.08a8.74,8.74,0,0,0-8.3-6h-1.4a8.74,8.74,0,0,0-8.3,6l-8.6,26.08A3.78,3.78,0,0,0,1754.43,3343.16Z"/><path class="cls-14" d="M1722,3317.88l.21,12.64a4.39,4.39,0,0,0,2.24,3.75l2.54,1.44,3.07,24.78a3.29,3.29,0,0,0,3.28,2.92h4.74a3.28,3.28,0,0,0,3.26-2.92l3.07-24.78,2.55-1.44a4.37,4.37,0,0,0,2.21-3.75l.22-12.64a11,11,0,0,0-10.86-11.21H1733a11,11,0,0,0-11,11Z"/></g><g id="Capitol_Hill_Hotel" data-name="Capitol Hill Hotel"><line class="cls-17" x1="1588.5" y1="3466.5" x2="1543.5" y2="3421.5"/><circle class="cls-29" cx="1621" cy="3498.99" r="50"/><rect class="cls-29" x="1571" y="3448.99" width="100" height="100" rx="12" ry="12"/><path class="cls-14" d="M1647.8,3473.77c-1.73-.25-3.35-.46-5.09-.63v-6.46a4,4,0,0,0-3.67-4,192.42,192.42,0,0,0-36.08,0,4,4,0,0,0-3.67,4v6.46c-1.7.2-3.39.41-5.08.64a4.06,4.06,0,0,0-3.49,4v18.76c3-.51,6-.95,9.06-1.3v-7.46a2.55,2.55,0,0,1,1.61-2.42,18,18,0,0,1,12.81,0,2.55,2.55,0,0,1,1.61,2.42v6.28c1.73,0,3.45-.08,5.17-.08s3.44,0,5.17.08v-6.28a2.55,2.55,0,0,1,1.61-2.42,18,18,0,0,1,12.81,0,2.55,2.55,0,0,1,1.61,2.42v7.46c3,.35,6,.79,9.06,1.3v-18.78A4,4,0,0,0,1647.8,3473.77Z"/><path class="cls-14" d="M1659,3523.39v-15.91a4,4,0,0,0-3.23-4,175,175,0,0,0-69.53,0,4,4,0,0,0-3.23,4v24.32a4.4,4.4,0,0,0,4.4,4.4h5.36a4.4,4.4,0,0,0,4.41-4.41v-5.86a176,176,0,0,0,47.65,0v5.87a4.4,4.4,0,0,0,4.4,4.4h5.36a4.41,4.41,0,0,0,4.41-4.4Z"/></g><g id="Union_Station" data-name="Union Station"><circle class="cls-30" cx="1440.18" cy="2744.04" r="50"/><rect class="cls-30" x="1390.08" y="2693.96" width="100" height="100" rx="12" ry="12"/><path class="cls-14" d="M1457.58,2715.34c-1.36-.44-2.68-.82-4-1.15V2710a2.16,2.16,0,0,0-1.78-2.14,71.67,71.67,0,0,0-23.2,0,2.17,2.17,0,0,0-1.8,2.14v4.22c-1.31.33-2.64.71-4,1.15-3.87,1.23-6.47,4.84-6.47,9.62v34.44a9,9,0,0,0,7.41,8.06l-5.45,8.84a3.3,3.3,0,1,0,5.78,3.2l.07-.13,1.83-2.72h28.44l1.83,2.72a3.3,3.3,0,0,0,5.85-3.07l-5.46-8.84a9,9,0,0,0,7.38-8.06V2725C1464,2720.18,1461.41,2716.57,1457.58,2715.34Zm-24-.07a1,1,0,0,1,.88-.94,39.86,39.86,0,0,1,11.44,0,1,1,0,0,1,.88.94v3.87a1,1,0,0,1-1.06,1h-11.08a1,1,0,0,1-1.06-1Zm-9.26,38.82a4.55,4.55,0,1,1,4.55,4.55,4.55,4.55,0,0,1-4.55-4.55Zm4.41,17.28,2.35-3.74h18.19l2.35,3.74Zm22.74-12.75a4.55,4.55,0,1,1,4.54-4.55,4.55,4.55,0,0,1-4.54,4.55Zm4.88-28.89-2.74,11.75a1.94,1.94,0,0,1-1.89,1.52h-23.08a1.94,1.94,0,0,1-1.89-1.52l-2.77-11.74a1.76,1.76,0,0,1,1.33-2.11,1.72,1.72,0,0,1,.39,0h29a1.76,1.76,0,0,1,1.77,1.76,2.58,2.58,0,0,1,0,.39Z"/></g><g id="Union_Station_Metro" data-name="Union Station Metro"><circle class="cls-31" cx="1386.58" cy="2793.57" r="25"/><rect class="cls-31" x="1361.58" y="2768.57" width="50" height="50" rx="12" ry="12"/><polygon class="cls-14" points="1370.2 2810 1376.66 2810 1376.66 2788.65 1376.75 2788.65 1383.49 2810 1389.66 2810 1396.41 2788.44 1396.5 2788.44 1396.5 2810 1402.95 2810 1402.95 2777.14 1393.24 2777.14 1386.81 2799.18 1386.73 2799.18 1379.91 2777.14 1370.2 2777.14 1370.2 2810"/></g><g id="Stadium_Armory_Metro" data-name="Stadium Armory Metro"><circle class="cls-31" cx="2696.58" cy="3305.57" r="25"/><rect class="cls-31" x="2671.58" y="3280.57" width="50" height="50" rx="12" ry="12"/><polygon class="cls-14" points="2680.2 3322 2686.66 3322 2686.66 3300.65 2686.75 3300.65 2693.49 3322 2699.66 3322 2706.41 3300.44 2706.5 3300.44 2706.5 3322 2712.95 3322 2712.95 3289.14 2703.24 3289.14 2696.81 3311.18 2696.73 3311.18 2689.91 3289.14 2680.2 3289.14 2680.2 3322"/></g><g id="Potomac_Ave_Metro" data-name="Potomac Ave Metro"><circle class="cls-31" cx="2335.58" cy="3684.57" r="25"/><rect class="cls-31" x="2310.58" y="3659.57" width="50" height="50" rx="12" ry="12"/><polygon class="cls-14" points="2319.2 3701 2325.66 3701 2325.66 3679.65 2325.75 3679.65 2332.49 3701 2338.66 3701 2345.41 3679.44 2345.5 3679.44 2345.5 3701 2351.95 3701 2351.95 3668.14 2342.24 3668.14 2335.81 3690.18 2335.73 3690.18 2328.91 3668.14 2319.2 3668.14 2319.2 3701"/></g><g id="Eastern_Market_Metro" data-name="Eastern Market Metro"><circle class="cls-31" cx="1849.58" cy="3563.57" r="25"/><rect class="cls-31" x="1824.58" y="3538.57" width="50" height="50" rx="12" ry="12"/><polygon class="cls-14" points="1833.2 3580 1839.66 3580 1839.66 3558.65 1839.75 3558.65 1846.49 3580 1852.66 3580 1859.41 3558.44 1859.5 3558.44 1859.5 3580 1865.95 3580 1865.95 3547.14 1856.24 3547.14 1849.81 3569.18 1849.73 3569.18 1842.91 3547.14 1833.2 3547.14 1833.2 3580"/></g><g id="Captiol_South_Metro" data-name="Captiol South Metro"><circle class="cls-31" cx="1396.58" cy="3446.57" r="25"/><rect class="cls-31" x="1371.58" y="3421.57" width="50" height="50" rx="12" ry="12"/><polygon class="cls-14" points="1380.2 3463 1386.66 3463 1386.66 3441.65 1386.75 3441.65 1393.49 3463 1399.66 3463 1406.41 3441.44 1406.5 3441.44 1406.5 3463 1412.95 3463 1412.95 3430.14 1403.24 3430.14 1396.81 3452.18 1396.73 3452.18 1389.91 3430.14 1380.2 3430.14 1380.2 3463"/></g><g id="Federal_Center_Metro" data-name="Federal Center Metro"><circle class="cls-31" cx="999.58" cy="3459.57" r="25"/><rect class="cls-31" x="974.58" y="3434.57" width="50" height="50" rx="12" ry="12"/><polygon class="cls-14" points="983.2 3476 989.66 3476 989.66 3454.65 989.75 3454.65 996.5 3476 1002.66 3476 1009.41 3454.44 1009.5 3454.44 1009.5 3476 1015.95 3476 1015.95 3443.14 1006.24 3443.14 999.81 3465.18 999.73 3465.18 992.91 3443.14 983.2 3443.14 983.2 3476"/></g><g id="Judiciary_Square_Metro" data-name="Judiciary Square Metro"><circle class="cls-31" cx="919.58" cy="2839.57" r="25"/><rect class="cls-31" x="894.58" y="2814.57" width="50" height="50" rx="12" ry="12"/><polygon class="cls-14" points="903.2 2856 909.66 2856 909.66 2834.65 909.75 2834.65 916.5 2856 922.66 2856 929.41 2834.44 929.5 2834.44 929.5 2856 935.95 2856 935.95 2823.14 926.24 2823.14 919.81 2845.18 919.73 2845.18 912.91 2823.14 903.2 2823.14 903.2 2856"/></g><g id="NOMA_Metro" data-name="NOMA Metro"><circle class="cls-31" cx="1557.58" cy="2291.57" r="25"/><rect class="cls-31" x="1532.58" y="2266.57" width="50" height="50" rx="12" ry="12"/><polygon class="cls-14" points="1541.2 2308 1547.66 2308 1547.66 2286.65 1547.75 2286.65 1554.49 2308 1560.66 2308 1567.41 2286.44 1567.5 2286.44 1567.5 2308 1573.95 2308 1573.95 2275.14 1564.24 2275.14 1557.81 2297.18 1557.73 2297.18 1550.91 2275.14 1541.2 2275.14 1541.2 2308"/></g></g><g id="Edge-4" data-name="Edge"><rect id="Frame-2" data-name="Frame" class="cls-20" x="790.2" y="2201.76" width="2827.83" height="2126.47"/></g></g></g></svg>